<?xml version="1.0" encoding="UTF-8" standalone="no"?>
<svg
   width="21.599669"
   height="21.599669"
   viewBox="0 0 5.7147998 5.7147998"
   version="1.1"
   id="svg8"
   sodipodi:docname="logout_exit.svg"
   inkscape:version="1.2.2 (b0a8486541, 2022-12-01)"
   xmlns:inkscape="http://www.inkscape.org/namespaces/inkscape"
   xmlns:sodipodi="http://sodipodi.sourceforge.net/DTD/sodipodi-0.dtd"
   xmlns="http://www.w3.org/2000/svg"
   xmlns:svg="http://www.w3.org/2000/svg">
  <defs
     id="defs12" />
  <sodipodi:namedview
     id="namedview10"
     pagecolor="#ffffff"
     bordercolor="#000000"
     borderopacity="0.25"
     inkscape:showpageshadow="2"
     inkscape:pageopacity="0.0"
     inkscape:pagecheckerboard="0"
     inkscape:deskcolor="#d1d1d1"
     showgrid="false"
     inkscape:zoom="12.875"
     inkscape:cx="10.834951"
     inkscape:cy="10.796117"
     inkscape:window-width="1423"
     inkscape:window-height="1028"
     inkscape:window-x="0"
     inkscape:window-y="22"
     inkscape:window-maximized="0"
     inkscape:current-layer="svg8" />
  <path
     fill="#63a437"
     d="m 2.8574,0 a 2.8574,2.8574 0 1 1 0,5.7148 2.8574,2.8574 0 0 1 0,-5.7148"
     id="path2"
     style="stroke-width:0.4" />
  <path
     fill="#ffffff"
     d="M 2.8578,1.164 A 1.6932,1.6932 0 0 0 1.1642,2.8576 1.6932,1.6932 0 0 0 2.8578,4.5508 1.6932,1.6932 0 0 0 4.551,2.8576 1.6932,1.6932 0 0 0 2.8578,1.164 m 0,0.4236 a 1.27,1.27 0 0 1 1.2696,1.27 1.27,1.27 0 0 1 -1.2696,1.2696 1.27,1.27 0 0 1 -1.27,-1.2696 1.27,1.27 0 0 1 1.27,-1.27"
     id="path4"
     style="stroke-width:0.4" />
  <path
     fill="#ffffff"
     d="M 2.6802,1.9596 2.381,2.2588 2.979,2.8572 2.381,3.456 2.6802,3.7552 3.5782,2.8572 3.2786,2.558 Z"
     id="path6"
     style="stroke-width:0.4" />
</svg>
