<?xml version="1.0" encoding="UTF-8" standalone="no"?>
<svg
   width="64"
   height="64"
   viewBox="0 0 16.933 16.933"
   version="1.1"
   id="svg65"
   sodipodi:docname="logout_password2.svg"
   inkscape:version="1.2.2 (b0a8486541, 2022-12-01)"
   xmlns:inkscape="http://www.inkscape.org/namespaces/inkscape"
   xmlns:sodipodi="http://sodipodi.sourceforge.net/DTD/sodipodi-0.dtd"
   xmlns="http://www.w3.org/2000/svg"
   xmlns:svg="http://www.w3.org/2000/svg">
  <sodipodi:namedview
     id="namedview67"
     pagecolor="#ffffff"
     bordercolor="#000000"
     borderopacity="0.25"
     inkscape:showpageshadow="2"
     inkscape:pageopacity="0.0"
     inkscape:pagecheckerboard="0"
     inkscape:deskcolor="#d1d1d1"
     showgrid="false"
     inkscape:zoom="12.875"
     inkscape:cx="32.038835"
     inkscape:cy="32"
     inkscape:window-width="1423"
     inkscape:window-height="1028"
     inkscape:window-x="0"
     inkscape:window-y="22"
     inkscape:window-maximized="0"
     inkscape:current-layer="svg65" />
  <defs
     id="defs33">
    <linearGradient
       id="a"
       x1="14.679"
       x2="2.293"
       y1="293.79"
       y2="282.98"
       gradientTransform="matrix(0.399992,0,0,0.41736,5.0796,-111.9558)"
       gradientUnits="userSpaceOnUse">
      <stop
         offset="0"
         stop-color="#66bcff"
         id="stop28" />
      <stop
         offset="1"
         stop-color="#b29aff"
         id="stop30" />
    </linearGradient>
  </defs>
  <rect
     width="5.9264002"
     height="5.0799999"
     x="5.5028"
     y="5.927"
     fill="url(#a)"
     rx="0.52919996"
     ry="0.52919996"
     id="rect35"
     style="fill:url(#a);stroke-width:0.4" />
  <rect
     width="5.2916002"
     height="0.42319998"
     x="5.8203998"
     y="6.1385999"
     opacity="0.35"
     rx="0.21159999"
     ry="0.21159999"
     id="rect37"
     style="stroke-width:0.4" />
  <rect
     width="0.42319998"
     height="0.21159999"
     x="5.9264002"
     y="6.2442002"
     opacity="0.35"
     ry="0.10599999"
     style="stroke-width:0.4;paint-order:stroke markers fill"
     id="rect39" />
  <rect
     width="1.0583999"
     height="0.21159999"
     x="7.9372001"
     y="6.2442002"
     opacity="0.35"
     ry="0.10599999"
     style="stroke-width:0.4;paint-order:stroke markers fill"
     id="rect41" />
  <rect
     width="0.21159999"
     height="0.21159999"
     x="10.7944"
     y="6.2442002"
     opacity="0.35"
     ry="0.10599999"
     style="stroke-width:0.4;paint-order:stroke markers fill"
     id="rect43" />
  <rect
     width="0.31760001"
     height="0.21159999"
     x="10.3712"
     y="6.2442002"
     opacity="0.35"
     ry="0.10599999"
     style="stroke-width:0.4;paint-order:stroke markers fill"
     id="rect45" />
  <rect
     width="0.21159999"
     height="0.21159999"
     x="10.0536"
     y="6.2442002"
     opacity="0.35"
     ry="0.10599999"
     style="stroke-width:0.4;paint-order:stroke markers fill"
     id="rect47" />
  <rect
     width="4.0212002"
     height="0.52919996"
     x="6.4555998"
     y="10.1602"
     fill="#ffffff"
     opacity="0.35"
     paint-order="markers stroke fill"
     rx="0.10599999"
     ry="0.10599999"
     id="rect49"
     style="stroke-width:0.4" />
  <g
     fill="#ccdfff"
     transform="matrix(0.4,0,0,0.4,5.0796,5.769)"
     id="g59">
    <rect
       width="1.323"
       height="1.323"
       x="4.2329998"
       y="10.448"
       rx="0.264"
       ry="0.264"
       style="paint-order:stroke markers fill"
       id="rect51" />
    <rect
       width="1.323"
       height="1.323"
       x="6.6139998"
       y="10.448"
       rx="0.264"
       ry="0.264"
       style="paint-order:stroke markers fill"
       id="rect53" />
    <rect
       width="1.323"
       height="1.323"
       x="8.9960003"
       y="10.448"
       rx="0.264"
       ry="0.264"
       style="paint-order:stroke markers fill"
       id="rect55" />
    <rect
       width="1.323"
       height="1.323"
       x="11.376"
       y="10.448"
       rx="0.264"
       ry="0.264"
       style="paint-order:stroke markers fill"
       id="rect57" />
  </g>
  <path
     fill="#ffffff"
     d="M 8.4664,7.469 C 8.1536,7.469 7.902,7.7206 7.902,8.033 V 8.245 H 8.1036 V 8.033 c 0,-0.1952 0.1672,-0.3624 0.3628,-0.3624 0.1952,0 0.3628,0.1672 0.3628,0.3628 V 8.245 H 9.0308 V 8.033 c 0,-0.3124 -0.252,-0.564 -0.5644,-0.564"
     id="path61"
     style="stroke-width:0.4" />
  <rect
     width="1.29"
     height="1.6931999"
     x="-9.5250006"
     y="-9.3128004"
     fill="#ffffff"
     rx="0.1064"
     ry="0.1076"
     transform="matrix(0,-1,-1,0,0,0)"
     id="rect63"
     style="stroke-width:0.4" />
</svg>
