<?xml version="1.0" encoding="UTF-8" standalone="no"?>
<svg
   viewBox="0 0 512 512"
   version="1.1"
   id="svg987"
   sodipodi:docname="menu.svg"
   inkscape:version="1.2.2 (b0a8486541, 2022-12-01)"
   xmlns:inkscape="http://www.inkscape.org/namespaces/inkscape"
   xmlns:sodipodi="http://sodipodi.sourceforge.net/DTD/sodipodi-0.dtd"
   xmlns="http://www.w3.org/2000/svg"
   xmlns:svg="http://www.w3.org/2000/svg">
  <defs
     id="defs991">
    <filter
       style="color-interpolation-filters:sRGB;"
       inkscape:label="Colorize"
       id="filter394"
       x="0"
       y="0"
       width="1"
       height="1">
      <feComposite
         in2="SourceGraphic"
         operator="arithmetic"
         k1="0"
         k2="1"
         result="composite1"
         id="feComposite380" />
      <feColorMatrix
         in="composite1"
         values="1"
         type="saturate"
         result="colormatrix1"
         id="feColorMatrix382" />
      <feFlood
         flood-opacity="1"
         flood-color="rgb(111,119,127)"
         result="flood1"
         id="feFlood384" />
      <feBlend
         in="flood1"
         in2="colormatrix1"
         mode="multiply"
         result="blend1"
         id="feBlend386" />
      <feBlend
         in2="blend1"
         mode="screen"
         result="blend2"
         id="feBlend388" />
      <feColorMatrix
         in="blend2"
         values="1"
         type="saturate"
         result="colormatrix2"
         id="feColorMatrix390" />
      <feComposite
         in="colormatrix2"
         in2="SourceGraphic"
         operator="in"
         k2="1"
         result="composite2"
         id="feComposite392" />
    </filter>
  </defs>
  <sodipodi:namedview
     id="namedview989"
     pagecolor="#ffffff"
     bordercolor="#000000"
     borderopacity="0.25"
     inkscape:showpageshadow="2"
     inkscape:pageopacity="0.0"
     inkscape:pagecheckerboard="0"
     inkscape:deskcolor="#d1d1d1"
     showgrid="false"
     inkscape:zoom="1.609375"
     inkscape:cx="257.5534"
     inkscape:cy="252.58252"
     inkscape:window-width="1423"
     inkscape:window-height="1023"
     inkscape:window-x="0"
     inkscape:window-y="0"
     inkscape:window-maximized="0"
     inkscape:current-layer="svg987" />
  <!--!Font Awesome Free 6.5.1 by @fontawesome - https://fontawesome.com License - https://fontawesome.com/license/free Copyright 2024 Fonticons, Inc.-->
  <path
     d="m 256,220.92682 c -79.4,0 -192,127.19076 -192,207.46181 0,36.14786 26.8,57.79515 71.7,57.79515 48.8,0 81.1,-25.99747 120.3,-25.99747 39.5,0 71.9,25.99747 120.3,25.99747 44.9,0 71.7,-21.64729 71.7,-57.79515 C 448,348.11758 335.4,220.92682 256,220.92682 Z M 108.7,207.8763 C 98.3,171.93558 66.3,148.73467 37.1,155.98496 8,163.23524 -7.2,198.1402 3.2,233.97734 c 10.4,35.94071 42.4,59.14163 71.6,51.89135 29.1,-7.25029 44.3,-42.15525 33.9,-77.99239 z m 84.7,-21.54371 c 30.9,-8.38962 46.4,-51.68419 34.6,-96.739554 -11.8,-45.05536 -46.5,-74.57439 -77.5,-66.184771 -31,8.38962 -46.4,51.684195 -34.6,96.739555 11.8,44.95179 46.5,74.57439 77.5,66.18477 z m 281.4,-30.34763 c -29.1,-7.25029 -61.2,16.0542 -71.6,51.89134 -10.4,35.94071 4.8,70.84567 33.9,77.99239 29.1,7.25028 61.2,-16.05422 71.6,-51.89135 10.4,-35.94071 -4.8,-70.84567 -33.9,-77.99238 z m -156.3,30.34763 c 30.9,8.38962 65.6,-21.23298 77.5,-66.18477 11.8,-44.951785 -3.6,-88.24636 -34.6,-96.739555 -31,-8.493194 -65.6,21.232986 -77.5,66.184771 -11.8,44.951784 3.6,88.246364 34.6,96.739554 z"
     id="path985"
     style="stroke-width:1.01772;fill:#cccccc;filter:url(#filter394)" />
</svg>
