<?xml version="1.0" encoding="UTF-8" standalone="no"?>
<svg
   viewBox="0 0 512 512"
   version="1.1"
   id="svg1107"
   sodipodi:docname="down.svg"
   inkscape:version="1.2.2 (b0a8486541, 2022-12-01)"
   xmlns:inkscape="http://www.inkscape.org/namespaces/inkscape"
   xmlns:sodipodi="http://sodipodi.sourceforge.net/DTD/sodipodi-0.dtd"
   xmlns="http://www.w3.org/2000/svg"
   xmlns:svg="http://www.w3.org/2000/svg">
  <defs
     id="defs1111" />
  <sodipodi:namedview
     id="namedview1109"
     pagecolor="#ffffff"
     bordercolor="#000000"
     borderopacity="0.25"
     inkscape:showpageshadow="2"
     inkscape:pageopacity="0.0"
     inkscape:pagecheckerboard="0"
     inkscape:deskcolor="#d1d1d1"
     showgrid="false"
     inkscape:zoom="1.5800781"
     inkscape:cx="255.68356"
     inkscape:cy="255.36712"
     inkscape:window-width="1920"
     inkscape:window-height="1017"
     inkscape:window-x="0"
     inkscape:window-y="0"
     inkscape:window-maximized="1"
     inkscape:current-layer="svg1107" />
  <!--!Font Awesome Free 6.5.1 by @fontawesome - https://fontawesome.com License - https://fontawesome.com/license/free Copyright 2024 Fonticons, Inc.-->
  <path
     d="M 504,257.73806 C 504,393.77792 393,504 256,504 119,504 8,393.77792 8,257.73806 8,121.6982 119,11.476118 256,11.476118 c 137,0 248,110.222082 248,246.261942 z M 360.4,229.0406 288,304.01147 V 122.69119 C 288,109.4844 277.3,98.859388 264,98.859388 h -16 c -13.3,0 -24,10.625012 -24,23.831802 V 304.01147 L 151.6,229.0406 c -9.3,-9.63202 -24.8,-9.83062 -34.3,-0.3972 l -10.9,10.92291 c -9.4,9.33412 -9.4,24.4276 0,33.66242 l 132.6,131.77 c 9.4,9.33412 24.6,9.33412 33.9,0 l 132.7,-131.77 c 9.4,-9.33412 9.4,-24.4276 0,-33.66242 L 394.7,228.6434 c -9.5,-9.43342 -25,-9.23482 -34.3,0.3972 z"
     id="path1105"
     style="stroke-width:0.99649" />
</svg>
