<svg xmlns="http://www.w3.org/2000/svg" viewBox="0 0 512 512"><!--!Font Awesome Free 6.5.1 by @fontawesome - https://fontawesome.com License - https://fontawesome.com/license/free Copyright 2024 Fonticons, Inc.--><path d="M464 256H48a48 48 0 0 0 0 96h416a48 48 0 0 0 0-96zm16 128H32a16 16 0 0 0 -16 16v16a64 64 0 0 0 64 64h352a64 64 0 0 0 64-64v-16a16 16 0 0 0 -16-16zM58.6 224h394.7c34.6 0 54.6-43.9 34.8-75.9C448 83.2 359.6 32.1 256 32c-103.5 .1-192 51.2-232.2 116.1C4 180.1 24.1 224 58.6 224zM384 112a16 16 0 1 1 -16 16 16 16 0 0 1 16-16zM256 80a16 16 0 1 1 -16 16 16 16 0 0 1 16-16zm-128 32a16 16 0 1 1 -16 16 16 16 0 0 1 16-16z"/></svg>