<?xml version="1.0" encoding="UTF-8" standalone="no"?>
<svg
   width="48"
   height="48"
   version="1.1"
   id="svg12"
   sodipodi:docname="cascade.svg"
   inkscape:version="1.2.2 (b0a8486541, 2022-12-01)"
   xmlns:inkscape="http://www.inkscape.org/namespaces/inkscape"
   xmlns:sodipodi="http://sodipodi.sourceforge.net/DTD/sodipodi-0.dtd"
   xmlns="http://www.w3.org/2000/svg"
   xmlns:svg="http://www.w3.org/2000/svg">
  <defs
     id="defs16" />
  <sodipodi:namedview
     id="namedview14"
     pagecolor="#ffffff"
     bordercolor="#000000"
     borderopacity="0.25"
     inkscape:showpageshadow="2"
     inkscape:pageopacity="0.0"
     inkscape:pagecheckerboard="0"
     inkscape:deskcolor="#d1d1d1"
     showgrid="false"
     inkscape:zoom="17.166667"
     inkscape:cx="24.029126"
     inkscape:cy="24"
     inkscape:window-width="1423"
     inkscape:window-height="1028"
     inkscape:window-x="0"
     inkscape:window-y="0"
     inkscape:window-maximized="0"
     inkscape:current-layer="svg12" />
  <circle
     style="opacity:0.2"
     cx="24"
     cy="25"
     r="20"
     id="circle2" />
  <circle
     style="fill:#765ffc;stroke-width:1.1"
     cx="24"
     cy="24"
     r="22"
     id="circle4" />
  <path
     style="opacity:0.1;fill:#ffffff"
     d="M 24,4 A 20,20 0 0 0 4,24 20,20 0 0 0 4.0215,24.582 20,20 0 0 1 24,5 20,20 0 0 1 43.979,24.418 20,20 0 0 0 44,24 20,20 0 0 0 24,4 Z"
     id="path6" />
  <path
     style="opacity:0.2"
     d="m 12.333635,32.511754 4.305605,-3.298372 c 2.287523,2.985533 4.717903,4.361663 7.423147,4.361663 2.690778,0 5.052442,-1.359855 7.23689,-4.32188 l 4.367088,3.218806 C 32.514466,36.74322 28.59765,39 24.062387,39 19.541592,39 15.5868,36.75769 12.333635,32.511754 Z M 24.047921,18.175407 16.384267,24.779385 12.841772,20.670886 24.064196,11 l 11.133815,9.678119 -3.55877,4.094033 z"
     id="path8" />
  <path
     style="fill:#ffffff"
     d="m 12.333635,31.511754 4.305605,-3.298372 c 2.287523,2.985533 4.717903,4.361663 7.423147,4.361663 2.690778,0 5.052442,-1.359855 7.23689,-4.32188 l 4.367088,3.218806 C 32.514466,35.74322 28.59765,38 24.062387,38 19.541592,38 15.5868,35.75769 12.333635,31.511754 Z M 24.047921,17.175407 16.384267,23.779385 12.841772,19.670886 24.064196,10 l 11.133815,9.678119 -3.55877,4.094033 z"
     id="path10" />
</svg>
