<?xml version="1.0" encoding="UTF-8" standalone="no"?>
<svg
   width="48"
   height="48"
   version="1"
   id="svg56"
   sodipodi:docname="down2.svg"
   inkscape:version="1.2.2 (b0a8486541, 2022-12-01)"
   xmlns:inkscape="http://www.inkscape.org/namespaces/inkscape"
   xmlns:sodipodi="http://sodipodi.sourceforge.net/DTD/sodipodi-0.dtd"
   xmlns="http://www.w3.org/2000/svg"
   xmlns:svg="http://www.w3.org/2000/svg">
  <defs
     id="defs60" />
  <sodipodi:namedview
     id="namedview58"
     pagecolor="#ffffff"
     bordercolor="#000000"
     borderopacity="0.25"
     inkscape:showpageshadow="2"
     inkscape:pageopacity="0.0"
     inkscape:pagecheckerboard="0"
     inkscape:deskcolor="#d1d1d1"
     showgrid="false"
     inkscape:zoom="17.166667"
     inkscape:cx="24.029126"
     inkscape:cy="24"
     inkscape:window-width="1423"
     inkscape:window-height="1028"
     inkscape:window-x="0"
     inkscape:window-y="0"
     inkscape:window-maximized="0"
     inkscape:current-layer="svg56" />
  <rect
     fill="#2095f2"
     width="44"
     height="44"
     x="2"
     y="1.9500051"
     rx="22"
     ry="22"
     id="rect44"
     style="stroke-width:1.1" />
  <path
     fill="#ffffff"
     opacity="0.2"
     d="m 24,1.950005 c -4.9676,0 -9.5249,1.64978 -13.2,4.40649 0.0033,12.1847 9.8142,21.9934 22,21.9934 4.9676,0 9.5249,-1.65 13.2,-4.4066 -0.0033,-12.1847 -9.8142,-21.9934 -22,-21.9934 z"
     id="path46"
     style="stroke-width:1.1" />
  <path
     fill="#ffffff"
     opacity="0.2"
     d="m 24,1.950005 c -12.188,0 -22,9.812 -22,22 0,0.1848 -0.0044,0.3663 0,0.55 0.29084,-11.9306 9.9968,-21.45 22,-21.45 12.0032,0 21.7096,9.5194 22,21.45 0.0044,-0.1837 0,-0.3652 0,-0.55 0,-12.188 -9.812,-22 -22,-22 z"
     id="path48"
     style="stroke-width:1.1" />
  <path
     opacity="0.2"
     d="M 2.01287,24.500005 C 2.00836,24.683705 2,24.865205 2,25.050005 c 0,12.188 9.812,22 22,22 12.188,0 22,-9.812 22,-22 0,-0.1848 -0.0088,-0.3663 -0.0132,-0.55 -0.2904,11.9306 -9.9836,21.45 -21.9868,21.45 -12.0032,0 -21.6964,-9.5194 -21.9868,-21.45 z"
     id="path50"
     style="stroke-width:1.1" />
  <path
     opacity="0.2"
     d="m 16.3,29.450005 7.7,9.9 7.7,-9.9 h -4.4 v 1.1 c 0,0.6094 -0.4906,1.1 -1.1,1.1 h -4.4 c -0.6094,0 -1.1,-0.4906 -1.1,-1.1 v -1.1 z m 5.5,-18.7 h 4.4 c 0.6094,0 1.1,0.4906 1.1,1.1 v 18.7 c 0,0.6094 -0.4906,1.1 -1.1,1.1 h -4.4 c -0.6094,0 -1.1,-0.4906 -1.1,-1.1 v -18.7 c 0,-0.6094 0.4906,-1.1 1.1,-1.1 z"
     id="path52"
     style="stroke-width:1.1" />
  <path
     fill="#ffffff"
     d="m 16.3,28.350005 7.7,9.9 7.7,-9.9 h -4.4 v 1.1 c 0,0.6094 -0.4906,1.1 -1.1,1.1 h -4.4 c -0.6094,0 -1.1,-0.4906 -1.1,-1.1 v -1.1 z m 5.5,-18.7 h 4.4 c 0.6094,0 1.1,0.4906 1.1,1.1 v 18.7 c 0,0.6094 -0.4906,1.1 -1.1,1.1 h -4.4 c -0.6094,0 -1.1,-0.4906 -1.1,-1.1 v -18.7 c 0,-0.6094 0.4906,-1.1 1.1,-1.1 z"
     id="path54"
     style="stroke-width:1.1" />
</svg>
