<?xml version="1.0" encoding="UTF-8" standalone="no"?>
<svg
   width="48"
   height="48"
   version="1"
   id="svg38"
   sodipodi:docname="down.svg"
   inkscape:version="1.2.2 (b0a8486541, 2022-12-01)"
   xmlns:inkscape="http://www.inkscape.org/namespaces/inkscape"
   xmlns:sodipodi="http://sodipodi.sourceforge.net/DTD/sodipodi-0.dtd"
   xmlns="http://www.w3.org/2000/svg"
   xmlns:svg="http://www.w3.org/2000/svg">
  <defs
     id="defs42" />
  <sodipodi:namedview
     id="namedview40"
     pagecolor="#ffffff"
     bordercolor="#000000"
     borderopacity="0.25"
     inkscape:showpageshadow="2"
     inkscape:pageopacity="0.0"
     inkscape:pagecheckerboard="0"
     inkscape:deskcolor="#d1d1d1"
     showgrid="false"
     inkscape:zoom="17.166667"
     inkscape:cx="24.029126"
     inkscape:cy="26.213592"
     inkscape:window-width="1423"
     inkscape:window-height="1028"
     inkscape:window-x="0"
     inkscape:window-y="0"
     inkscape:window-maximized="0"
     inkscape:current-layer="svg38" />
  <rect
     style="opacity:0.2;stroke-width:1.1"
     width="23.1"
     height="13.2"
     x="14.050021"
     y="28.400063"
     rx="2.2"
     ry="2.2"
     transform="matrix(0,1,1,0,0,0)"
     id="rect18" />
  <path
     style="opacity:0.2;stroke-width:1.1"
     d="m 2.0009129,31.524493 a 2.2508754,2.015628 0 0 0 0.3011134,0.948667 l 4.3738221,6.784351 4.3738226,6.78435 a 2.2508754,2.015628 0 0 0 3.899077,0 l 4.373822,-6.78435 4.376019,-6.784351 A 2.2508754,2.015628 0 0 0 21.749052,29.450021 H 4.251563 a 2.2508754,2.015628 0 0 0 -2.2506501,2.074472 z"
     id="path20" />
  <rect
     style="fill:#2c6de3;stroke-width:1.1"
     width="23.1"
     height="13.2"
     x="12.950022"
     y="28.400063"
     rx="2.2"
     ry="2.2"
     transform="matrix(0,1,1,0,0,0)"
     id="rect22" />
  <rect
     style="fill:#53990f;stroke-width:1.1"
     width="23.1"
     height="13.2"
     x="-34.95002"
     y="6.4000635"
     rx="2.2"
     ry="2.2"
     transform="rotate(-90)"
     id="rect24" />
  <path
     style="opacity:0.2;stroke-width:1.1"
     d="m 24.000727,18.57555 a 2.2508754,2.015628 0 0 1 0.301113,-0.948667 l 4.373822,-6.784352 4.373822,-6.7843498 a 2.2508754,2.015628 0 0 1 3.899077,0 l 4.373822,6.7843498 4.376019,6.784352 a 2.2508754,2.015628 0 0 1 -1.949537,3.023138 H 26.251376 A 2.2508754,2.015628 0 0 1 24.000727,18.57555 Z"
     id="path26" />
  <path
     style="fill:#3ba4fa;stroke-width:1.1"
     d="m 24.000727,17.47555 a 2.2508754,2.015628 0 0 1 0.301113,-0.948667 l 4.373822,-6.7843517 4.373822,-6.7843501 a 2.2508754,2.015628 0 0 1 3.899077,0 l 4.373822,6.7843501 4.376019,6.7843517 a 2.2508754,2.015628 0 0 1 -1.949537,3.023138 H 26.251376 A 2.2508754,2.015628 0 0 1 24.000727,17.47555 Z"
     id="path28" />
  <path
     style="fill:#88d216;stroke-width:1.1"
     d="m 2.0009129,30.424493 a 2.2508754,2.015628 0 0 0 0.3011134,0.948667 l 4.3738221,6.784351 4.3738226,6.78435 a 2.2508754,2.015628 0 0 0 3.899077,0 l 4.373822,-6.78435 4.376019,-6.784351 A 2.2508754,2.015628 0 0 0 21.749052,28.350021 H 4.251563 a 2.2508754,2.015628 0 0 0 -2.2506501,2.074472 z"
     id="path30" />
  <path
     style="opacity:0.1;fill:#ffffff;stroke-width:1.1"
     d="m 8.5999532,11.850021 c -1.2188,0 -2.2,0.9812 -2.2,2.2 v 1.1 c 0,-1.2188 0.9812,-2.2 2.2,-2.2 h 8.8000008 c 1.2188,0 2.2,0.9812 2.2,2.2 v -1.1 c 0,-1.2188 -0.9812,-2.2 -2.2,-2.2 z"
     id="path32" />
  <path
     style="opacity:0.2;fill:#ffffff;stroke-width:1.1"
     d="m 34.950352,1.9500213 a 2.2508754,2.015628 0 0 0 -1.901367,1.0076172 l -4.374218,6.7847652 -4.37207,6.7847663 a 2.2508754,2.015628 0 0 0 -0.30293,0.94746 2.2508754,2.015628 0 0 0 0.08594,0.608009 2.2508754,2.015628 0 0 1 0.216992,-0.455469 l 4.37207,-6.784766 4.374218,-6.7847655 a 2.2508754,2.015628 0 0 1 3.899414,0 l 4.37422,6.7847655 4.376366,6.784766 A 2.2508754,2.015628 0 0 1 45.913835,18.084787 2.2508754,2.015628 0 0 0 45.69899,16.52717 L 41.322618,9.7424037 36.948399,2.9576385 A 2.2508754,2.015628 0 0 0 34.950352,1.9500213 Z"
     id="path34" />
  <path
     style="opacity:0.2;fill:#ffffff;stroke-width:1.1"
     d="m 4.2515157,28.350021 a 2.2508754,2.015628 0 0 0 -2.2515625,2.075391 2.2508754,2.015628 0 0 0 0.085938,0.491992 2.2508754,2.015628 0 0 1 2.165625,-1.467383 H 21.748391 a 2.2508754,2.015628 0 0 1 2.165625,1.465234 2.2508754,2.015628 0 0 0 -2.165625,-2.565234 z"
     id="path36" />
</svg>
