<?xml version="1.0" encoding="UTF-8" standalone="no"?>
<svg
   width="48"
   height="48"
   version="1"
   id="svg20"
   sodipodi:docname="hotcorners.svg"
   inkscape:version="1.2.2 (b0a8486541, 2022-12-01)"
   xmlns:inkscape="http://www.inkscape.org/namespaces/inkscape"
   xmlns:sodipodi="http://sodipodi.sourceforge.net/DTD/sodipodi-0.dtd"
   xmlns="http://www.w3.org/2000/svg"
   xmlns:svg="http://www.w3.org/2000/svg">
  <defs
     id="defs24" />
  <sodipodi:namedview
     id="namedview22"
     pagecolor="#ffffff"
     bordercolor="#000000"
     borderopacity="0.25"
     inkscape:showpageshadow="2"
     inkscape:pageopacity="0.0"
     inkscape:pagecheckerboard="0"
     inkscape:deskcolor="#d1d1d1"
     showgrid="false"
     inkscape:zoom="17.083333"
     inkscape:cx="24.087805"
     inkscape:cy="24"
     inkscape:window-width="1423"
     inkscape:window-height="1028"
     inkscape:window-x="0"
     inkscape:window-y="0"
     inkscape:window-maximized="0"
     inkscape:current-layer="svg20" />
  <rect
     style="opacity:0.2"
     width="40"
     height="40"
     x="4"
     y="5"
     rx="4"
     ry="4.286"
     id="rect2" />
  <rect
     style="fill:#007a96;stroke-width:1.09325"
     width="44"
     height="43.461811"
     x="2"
     y="2.5137239"
     rx="4.4000001"
     ry="4.6569328"
     id="rect4" />
  <rect
     style="opacity:0.2"
     width="12"
     height="12"
     x="10"
     y="11"
     rx="3"
     ry="3"
     id="rect6" />
  <rect
     style="fill:#ffffff"
     width="12"
     height="12"
     x="10"
     y="10"
     rx="3"
     ry="3"
     id="rect8" />
  <rect
     style="opacity:0.3"
     width="12"
     height="12"
     x="26"
     y="10"
     rx="3"
     ry="3"
     id="rect10" />
  <rect
     style="opacity:0.3"
     width="12"
     height="12"
     x="10"
     y="26"
     rx="3"
     ry="3"
     id="rect12" />
  <rect
     style="opacity:0.2"
     width="12"
     height="12"
     x="26"
     y="27"
     rx="3"
     ry="3"
     id="rect14" />
  <rect
     style="fill:#ffffff"
     width="12"
     height="12"
     x="26"
     y="26"
     rx="3"
     ry="3"
     id="rect16" />
  <path
     style="fill:#ffffff;opacity:0.1"
     d="M 8 4 C 5.784 4 4 5.9108706 4 8.2851562 L 4 9.2851562 C 4 6.9108706 5.784 5 8 5 L 40 5 C 42.216 5 44 6.9108706 44 9.2851562 L 44 8.2851562 C 44 5.9108706 42.216 4 40 4 L 8 4 z"
     id="path18" />
</svg>
