<?xml version="1.0" encoding="UTF-8" standalone="no"?>
<svg
   width="48"
   height="48"
   version="1"
   id="svg92"
   sodipodi:docname="light-dark.svg"
   inkscape:version="1.2.2 (b0a8486541, 2022-12-01)"
   xmlns:inkscape="http://www.inkscape.org/namespaces/inkscape"
   xmlns:sodipodi="http://sodipodi.sourceforge.net/DTD/sodipodi-0.dtd"
   xmlns="http://www.w3.org/2000/svg"
   xmlns:svg="http://www.w3.org/2000/svg">
  <defs
     id="defs96" />
  <sodipodi:namedview
     id="namedview94"
     pagecolor="#ffffff"
     bordercolor="#000000"
     borderopacity="0.25"
     inkscape:showpageshadow="2"
     inkscape:pageopacity="0.0"
     inkscape:pagecheckerboard="0"
     inkscape:deskcolor="#d1d1d1"
     showgrid="false"
     inkscape:zoom="17.166667"
     inkscape:cx="24.029126"
     inkscape:cy="24"
     inkscape:window-width="1423"
     inkscape:window-height="1028"
     inkscape:window-x="0"
     inkscape:window-y="0"
     inkscape:window-maximized="0"
     inkscape:current-layer="svg92" />
  <path
     style="opacity:0.2"
     d="m 24,2.9998569 c -0.844671,0 -1.688707,0.3234725 -2.335938,0.9707031 l -4.029296,4.0292969 h -7.234375 c -1.8836003,0 -3.4003909,1.5167906 -3.4003909,3.4003911 v 7.234375 l -4.0292969,4.029296 c -1.2944613,1.294462 -1.2944613,3.377414 0,4.671876 l 4.0292969,4.029296 v 7.234375 c 0,1.8836 1.5167906,3.400391 3.4003909,3.400391 h 7.234375 l 4.029296,4.029297 c 1.294462,1.294461 3.377414,1.294461 4.671876,0 l 4.029296,-4.029297 h 7.234375 C 39.483209,41.999857 41,40.483066 41,38.599466 v -7.234375 l 4.029297,-4.029296 c 1.294461,-1.294462 1.294461,-3.377414 0,-4.671876 L 41,18.634623 V 11.400248 C 41,9.5166475 39.483209,7.9998569 37.599609,7.9998569 H 30.365234 L 26.335938,3.97056 C 25.688707,3.3233294 24.844671,2.9998569 24,2.9998569 Z"
     id="path82" />
  <path
     style="fill:#546e7a;stroke-width:1.1"
     d="m 24,-0.20007856 c -0.929138,0 -1.857578,0.35581975 -2.569532,1.06777341 L 16.998243,5.2999214 H 9.0404301 c -2.0719603,0 -3.74043,1.6684697 -3.74043,3.7404306 v 7.957812 L 0.86777352,21.43039 c -1.42390743,1.423908 -1.42390743,3.715155 0,5.139064 l 4.43222658,4.432225 v 7.957813 c 0,2.07196 1.6684697,3.74043 3.74043,3.74043 h 7.9578129 l 4.432225,4.432227 c 1.423908,1.423907 3.715156,1.423907 5.139064,0 l 4.432225,-4.432227 h 7.957813 c 2.07196,0 3.74043,-1.66847 3.74043,-3.74043 v -7.957813 l 4.432227,-4.432225 c 1.423907,-1.423909 1.423907,-3.715156 0,-5.139064 L 42.7,16.998164 V 9.040352 C 42.7,6.9683911 41.03153,5.2999214 38.95957,5.2999214 H 31.001757 L 26.569532,0.86769485 C 25.857578,0.15574119 24.929138,-0.20007856 24,-0.20007856 Z"
     id="path84" />
  <path
     style="opacity:0.2"
     d="M 24,13 A 12,12 0 0 0 12,25 12,12 0 0 0 24,37 Z"
     id="path86" />
  <path
     style="fill:#ffffff"
     d="M 24,12 A 12,12 0 0 0 12,24 12,12 0 0 0 24,36 Z"
     id="path88" />
  <path
     style="opacity:0.1;fill:#ffffff"
     d="M 24 2 C 23.155329 2 22.311294 2.3234725 21.664062 2.9707031 L 17.634766 7 L 10.400391 7 C 8.5167903 7 7 8.5167898 7 10.400391 L 7 11.400391 C 7 9.5167901 8.5167903 8 10.400391 8 L 17.634766 8 L 21.664062 3.9707031 C 22.311294 3.3234725 23.155329 3 24 3 C 24.844671 3 25.688707 3.3234725 26.335938 3.9707031 L 30.365234 8 L 37.599609 8 C 39.483209 8 41 9.5167901 41 11.400391 L 41 10.400391 C 41 8.5167898 39.483209 7 37.599609 7 L 30.365234 7 L 26.335938 2.9707031 C 25.688707 2.3234725 24.844671 2 24 2 z M 7 17.634766 L 2.9707031 21.664062 C 2.1952081 22.439558 1.8951451 23.497593 2.0488281 24.5 C 2.1516738 23.829183 2.4517368 23.183029 2.9707031 22.664062 L 7 18.634766 L 7 17.634766 z M 41 17.634766 L 41 18.634766 L 45.029297 22.664062 C 45.548263 23.183029 45.848326 23.829183 45.951172 24.5 C 46.104855 23.497593 45.804792 22.439558 45.029297 21.664062 L 41 17.634766 z"
     id="path90" />
</svg>
