<?xml version="1.0" encoding="UTF-8" standalone="no"?>
<svg
   width="48"
   height="48"
   version="1.1"
   id="svg12"
   sodipodi:docname="menu.svg"
   inkscape:version="1.2.2 (b0a8486541, 2022-12-01)"
   xmlns:inkscape="http://www.inkscape.org/namespaces/inkscape"
   xmlns:sodipodi="http://sodipodi.sourceforge.net/DTD/sodipodi-0.dtd"
   xmlns="http://www.w3.org/2000/svg"
   xmlns:svg="http://www.w3.org/2000/svg">
  <defs
     id="defs16" />
  <sodipodi:namedview
     id="namedview14"
     pagecolor="#ffffff"
     bordercolor="#000000"
     borderopacity="0.25"
     inkscape:showpageshadow="2"
     inkscape:pageopacity="0.0"
     inkscape:pagecheckerboard="0"
     inkscape:deskcolor="#d1d1d1"
     showgrid="false"
     inkscape:zoom="17.083333"
     inkscape:cx="24.204879"
     inkscape:cy="36.058537"
     inkscape:window-width="1423"
     inkscape:window-height="1028"
     inkscape:window-x="0"
     inkscape:window-y="0"
     inkscape:window-maximized="0"
     inkscape:current-layer="svg12" />
  <path
     style="opacity:0.2"
     d="m 18.5,6 c -5.127433,0 -8.5,4.693721 -8.5,9.5 0,0.267291 0.114183,0.515443 0.134766,0.78125 C 6.6987446,16.955618 4,19.887471 4,23.5 c 0,4.05063 3,7.5 7,7.5 0,1 0,1.296661 0,2 0,3.886511 2.320265,7.097503 4.933594,8.753906 C 18.546923,43.41031 21.398061,44 24,44 26.601939,44 29.453077,43.41031 32.066406,41.753906 34.679735,40.097503 37,36.886511 37,33 c 0,-0.703339 0,-1 0,-2 4,0 7,-3.44937 7,-7.5 0,-3.612529 -2.698745,-6.544382 -6.134766,-7.21875 C 37.885817,16.015443 38,15.767291 38,15.5 38,10.693721 34.627433,6 29.5,6 27.257888,6 25.43575,6.9982102 24,8.4101562 22.56425,6.9982102 20.742112,6 18.5,6 Z"
     id="path2" />
  <path
     style="fill:#00bf86;stroke-width:1.18634"
     d="m 17.649414,0.81165393 c -5.959492,0 -9.8793455,5.68350737 -9.8793455,11.50330907 0,0.323655 0.132712,0.624136 0.1566353,0.945996 -3.9936052,0.816574 -7.13029096,4.366681 -7.13029096,8.741 0,4.904806 3.48682766,9.081561 8.13593256,9.081561 0,1.210875 0,1.570093 0,2.421748 0,4.706077 2.6967876,8.594187 5.7341966,10.599884 3.037409,2.005696 6.351217,2.719737 9.375389,2.719737 3.024171,0 6.33798,-0.714041 9.375389,-2.719737 3.037409,-2.005697 5.734198,-5.893807 5.734198,-10.599884 0,-0.851655 0,-1.210873 0,-2.421748 4.649103,0 8.13593,-4.176755 8.13593,-9.081561 0,-4.374319 -3.136686,-7.924426 -7.13029,-8.741 0.02391,-0.32186 0.156635,-0.622341 0.156635,-0.945996 0,-5.8198017 -3.919854,-11.50330907 -9.879344,-11.50330907 -2.605953,0 -4.723782,1.20870747 -6.392518,2.91839707 C 22.373194,2.0203614 20.255367,0.81165393 17.649414,0.81165393 Z"
     id="path4" />
  <path
     style="opacity:0.2"
     d="M 18.5,10 A 4.5,5.5 0 0 0 14,15.5 4.5,5.5 0 0 0 18.5,21 4.5,5.5 0 0 0 23,15.5 4.5,5.5 0 0 0 18.5,10 Z m 11,0 A 4.5,5.5 0 0 0 25,15.5 4.5,5.5 0 0 0 29.5,21 4.5,5.5 0 0 0 34,15.5 4.5,5.5 0 0 0 29.5,10 Z m -18,10 A 3.5,3.5 0 0 0 8,23.5 3.5,3.5 0 0 0 11.5,27 3.5,3.5 0 0 0 15,23.5 3.5,3.5 0 0 0 11.5,20 Z m 25,0 A 3.5,3.5 0 0 0 33,23.5 3.5,3.5 0 0 0 36.5,27 3.5,3.5 0 0 0 40,23.5 3.5,3.5 0 0 0 36.5,20 Z M 24,22 c -4.737557,0 -9,6 -9,11 0,5 5.199415,7 9,7 3.800585,0 9,-2 9,-7 0,-5 -4.262443,-11 -9,-11 z"
     id="path6" />
  <path
     style="fill:#313131;stroke-width:1.23621"
     d="m 16.959662,5.524083 a 5.5143758,6.8590739 0 0 0 -5.514376,6.859074 5.5143758,6.8590739 0 0 0 5.514376,6.859073 5.5143758,6.8590739 0 0 0 5.514376,-6.859073 5.5143758,6.8590739 0 0 0 -5.514376,-6.859074 z m 13.479584,0 a 5.5143758,6.8590739 0 0 0 -5.514375,6.859074 5.5143758,6.8590739 0 0 0 5.514375,6.859073 5.5143758,6.8590739 0 0 0 5.514376,-6.859073 5.5143758,6.8590739 0 0 0 -5.514376,-6.859074 z M 8.3817426,17.995127 a 4.288959,4.3648651 0 0 0 -4.2889587,4.364866 4.288959,4.3648651 0 0 0 4.2889587,4.364863 4.288959,4.3648651 0 0 0 4.2889594,-4.364863 4.288959,4.3648651 0 0 0 -4.2889594,-4.364866 z m 30.6354224,0 a 4.288959,4.3648651 0 0 0 -4.28896,4.364866 4.288959,4.3648651 0 0 0 4.28896,4.364863 4.288959,4.3648651 0 0 0 4.288959,-4.364863 4.288959,4.3648651 0 0 0 -4.288959,-4.364866 z m -15.317712,2.494208 c -5.805481,0 -11.028751,7.482626 -11.028751,13.718148 0,6.235523 6.371451,8.729731 11.028751,8.729731 4.657302,0 11.028752,-2.494208 11.028752,-8.729731 0,-6.235522 -5.223269,-13.718148 -11.028752,-13.718148 z"
     id="path8" />
  <path
     style="opacity:0.1;fill:#ffffff"
     d="M 18.5 5 C 13.372567 5 10 9.6937208 10 14.5 C 10 14.574805 10.019871 14.646136 10.033203 14.71875 C 10.375331 10.198035 13.65122 6 18.5 6 C 20.742112 6 22.56425 6.9982103 24 8.4101562 C 25.43575 6.9982103 27.257888 6 29.5 6 C 34.34878 6 37.624669 10.198035 37.966797 14.71875 C 37.980129 14.646136 38 14.574805 38 14.5 C 38 9.6937208 34.627433 5 29.5 5 C 27.257888 5 25.43575 5.9982102 24 7.4101562 C 22.56425 5.9982102 20.742112 5 18.5 5 z M 10.007812 15.3125 C 6.6333315 16.033991 4 18.932691 4 22.5 C 4 22.668339 4.0132183 22.833943 4.0234375 23 C 4.259404 19.6198 6.8590268 16.92416 10.134766 16.28125 C 10.114183 16.015443 10 15.767291 10 15.5 C 10 15.437314 10.006669 15.375137 10.007812 15.3125 z M 37.992188 15.3125 C 37.993331 15.375137 38 15.437314 38 15.5 C 38 15.767291 37.885817 16.015443 37.865234 16.28125 C 41.140973 16.92416 43.740596 19.6198 43.976562 23 C 43.986782 22.833943 44 22.668339 44 22.5 C 44 18.932691 41.366668 16.033991 37.992188 15.3125 z"
     id="path10" />
</svg>
