<?xml version="1.0" encoding="UTF-8" standalone="no"?>
<svg
   width="48"
   height="48"
   version="1"
   id="svg18"
   sodipodi:docname="recents.svg"
   inkscape:version="1.2.2 (b0a8486541, 2022-12-01)"
   xmlns:inkscape="http://www.inkscape.org/namespaces/inkscape"
   xmlns:sodipodi="http://sodipodi.sourceforge.net/DTD/sodipodi-0.dtd"
   xmlns="http://www.w3.org/2000/svg"
   xmlns:svg="http://www.w3.org/2000/svg">
  <defs
     id="defs22" />
  <sodipodi:namedview
     id="namedview20"
     pagecolor="#ffffff"
     bordercolor="#000000"
     borderopacity="0.25"
     inkscape:showpageshadow="2"
     inkscape:pageopacity="0.0"
     inkscape:pagecheckerboard="0"
     inkscape:deskcolor="#d1d1d1"
     showgrid="false"
     inkscape:zoom="17.083333"
     inkscape:cx="24.17561"
     inkscape:cy="24.819513"
     inkscape:window-width="1920"
     inkscape:window-height="1032"
     inkscape:window-x="0"
     inkscape:window-y="0"
     inkscape:window-maximized="1"
     inkscape:current-layer="svg18" />
  <rect
     style="opacity:0.2;stroke-width:0.985035;fill:#471c64"
     width="40"
     height="38.811794"
     x="4"
     y="5"
     rx="2"
     ry="1.9405897"
     id="rect2" />
  <rect
     style="fill:#c60056;stroke-width:1.08451"
     width="44"
     height="42.769863"
     x="2"
     y="3.244123"
     rx="2.2"
     ry="2.1384931"
     id="rect4" />
  <path
     style="opacity:0.1;fill:#ffffff;stroke-width:0.73396"
     d="m 6,5.3839093 c -1.108,0 -2,0.4805177 -2,1.0773938 V 7 C 4,6.4031239 4.892,5.9226062 6,5.9226062 h 36 c 1.108,0 2,0.4805177 2,1.0773938 V 6.4613031 C 44,5.864427 43.108,5.3839093 42,5.3839093 Z"
     id="path6" />
  <path
     style="opacity:0.2"
     d="m 12,9.0429688 c -2.209139,0 -4,1.7908612 -4,4.0000002 0,2.209139 1.790861,4 4,4 2.209139,0 4,-1.790861 4,-4 0,-2.209139 -1.790861,-4.0000002 -4,-4.0000002 z m 12,0.056641 c -2.216,0 -4,1.7839996 -4,3.9999996 0,2.216 1.784,4 4,4 h 12 c 2.216,0 4,-1.784 4,-4 0,-2.216 -1.784,-3.9999996 -4,-3.9999996 z M 12,20.943359 c -2.209139,0 -4,1.790861 -4,4 0,2.209139 1.790861,4 4,4 2.209139,0 4,-1.790861 4,-4 0,-2.209139 -1.790861,-4 -4,-4 z M 24,21 c -2.216,0 -4,1.784 -4,4 0,2.216 1.784,4 4,4 h 12 c 2.216,0 4,-1.784 4,-4 0,-2.216 -1.784,-4 -4,-4 z M 12,32.943359 c -2.209139,0 -4,1.790861 -4,4 0,2.209139 1.790861,4 4,4 2.209139,0 4,-1.790861 4,-4 0,-2.209139 -1.790861,-4 -4,-4 z M 24,33 c -2.216,0 -4,1.784 -4,4 0,2.216 1.784,4 4,4 h 12 c 2.216,0 4,-1.784 4,-4 0,-2.216 -1.784,-4 -4,-4 z"
     id="path8" />
  <g
     id="g16"
     transform="matrix(1,0,0,0.95625673,0,1.7497307)">
    <path
       style="fill:#ffffff"
       d="m 12,19.943359 c -2.209139,0 -4,1.790861 -4,4 0,2.209139 1.790861,4 4,4 2.209139,0 4,-1.790861 4,-4 0,-2.209139 -1.790861,-4 -4,-4 z M 24,20 c -2.216,0 -4,1.784 -4,4 0,2.216 1.784,4 4,4 h 12 c 2.216,0 4,-1.784 4,-4 0,-2.216 -1.784,-4 -4,-4 z"
       id="path10" />
    <path
       style="fill:#ff9448"
       d="m 12,31.943359 c -2.209139,0 -4,1.790861 -4,4 0,2.209139 1.790861,4 4,4 2.209139,0 4,-1.790861 4,-4 0,-2.209139 -1.790861,-4 -4,-4 z M 24,32 c -2.216,0 -4,1.784 -4,4 0,2.216 1.784,4 4,4 h 12 c 2.216,0 4,-1.784 4,-4 0,-2.216 -1.784,-4 -4,-4 z"
       id="path12" />
    <path
       style="fill:#ffffff"
       d="m 12,8.043359 c -2.209139,0 -4,1.790861 -4,4 0,2.209139 1.790861,4 4,4 2.209139,0 4,-1.790861 4,-4 0,-2.209139 -1.790861,-4 -4,-4 z M 24,8.1 c -2.216,0 -4,1.784 -4,4 0,2.216 1.784,4 4,4 h 12 c 2.216,0 4,-1.784 4,-4 0,-2.216 -1.784,-4 -4,-4 z"
       id="path14" />
  </g>
</svg>
