<?xml version="1.0" encoding="UTF-8" standalone="no"?>
<svg
   width="48"
   height="48"
   version="1.1"
   id="svg145"
   sodipodi:docname="t2.svg"
   inkscape:version="1.2.2 (b0a8486541, 2022-12-01)"
   xmlns:inkscape="http://www.inkscape.org/namespaces/inkscape"
   xmlns:sodipodi="http://sodipodi.sourceforge.net/DTD/sodipodi-0.dtd"
   xmlns="http://www.w3.org/2000/svg"
   xmlns:svg="http://www.w3.org/2000/svg">
  <defs
     id="defs149" />
  <sodipodi:namedview
     id="namedview147"
     pagecolor="#ffffff"
     bordercolor="#000000"
     borderopacity="0.25"
     inkscape:showpageshadow="2"
     inkscape:pageopacity="0.0"
     inkscape:pagecheckerboard="0"
     inkscape:deskcolor="#d1d1d1"
     showgrid="false"
     inkscape:zoom="17.166667"
     inkscape:cx="24.116504"
     inkscape:cy="23.941747"
     inkscape:window-width="1920"
     inkscape:window-height="1032"
     inkscape:window-x="0"
     inkscape:window-y="0"
     inkscape:window-maximized="1"
     inkscape:current-layer="svg145" />
  <rect
     style="opacity:0.2"
     width="40"
     height="40"
     x="4"
     y="5"
     rx="3"
     ry="3"
     id="rect117" />
  <rect
     style="fill:#217844;stroke-width:1.056"
     width="42.240002"
     height="42.240002"
     x="2.8800001"
     y="2.8800001"
     rx="3.168"
     ry="3.168"
     id="rect119" />
  <rect
     style="opacity:0.1"
     width="3"
     height="1"
     x="17"
     y="-39"
     transform="scale(1,-1)"
     id="rect121" />
  <rect
     style="fill:#d7f4e3"
     width="3"
     height="13"
     x="17"
     y="-38"
     transform="scale(1,-1)"
     id="rect123" />
  <rect
     style="opacity:0.1"
     width="3"
     height="1"
     x="31"
     y="38"
     id="rect125" />
  <rect
     style="fill:#d7f4e3"
     width="3"
     height="28"
     x="31"
     y="10"
     id="rect127" />
  <rect
     style="opacity:0.1"
     width="7"
     height="1"
     x="29"
     y="31"
     id="rect129" />
  <rect
     style="fill:#d7f4e3"
     width="7"
     height="14"
     x="29"
     y="17"
     id="rect131" />
  <rect
     style="fill:#d7f4e3"
     width="3"
     height="13"
     x="17"
     y="10"
     id="rect133" />
  <rect
     style="opacity:0.1"
     width="1"
     height="13"
     x="23"
     y="-25"
     transform="rotate(90)"
     id="rect135" />
  <rect
     style="fill:#d7f4e3"
     width="3"
     height="13"
     x="20"
     y="-25"
     transform="rotate(90)"
     id="rect137" />
  <rect
     style="opacity:0.1"
     width="1"
     height="13"
     x="-29"
     y="-25"
     transform="matrix(0,-1,-1,0,0,0)"
     id="rect139" />
  <rect
     style="fill:#d7f4e3"
     width="3"
     height="13"
     x="-28"
     y="-25"
     transform="matrix(0,-1,-1,0,0,0)"
     id="rect141" />
  <path
     style="fill:#ffffff;opacity:0.2"
     d="M 7 4 C 5.338 4 4 5.338 4 7 L 4 8 C 4 6.338 5.338 5 7 5 L 41 5 C 42.662 5 44 6.338 44 8 L 44 7 C 44 5.338 42.662 4 41 4 L 7 4 z"
     id="path143" />
</svg>
