<?xml version="1.0" encoding="UTF-8" standalone="no"?>
<svg
   viewBox="0 0 19.200001 19.84"
   version="1.1"
   id="svg28"
   sodipodi:docname="logout_shutdown.svg"
   width="19.200001"
   height="19.84"
   inkscape:version="1.2.2 (b0a8486541, 2022-12-01)"
   xmlns:inkscape="http://www.inkscape.org/namespaces/inkscape"
   xmlns:sodipodi="http://sodipodi.sourceforge.net/DTD/sodipodi-0.dtd"
   xmlns="http://www.w3.org/2000/svg"
   xmlns:svg="http://www.w3.org/2000/svg">
  <defs
     id="defs32" />
  <sodipodi:namedview
     id="namedview30"
     pagecolor="#ffffff"
     bordercolor="#000000"
     borderopacity="0.25"
     inkscape:showpageshadow="2"
     inkscape:pageopacity="0.0"
     inkscape:pagecheckerboard="0"
     inkscape:deskcolor="#d1d1d1"
     showgrid="false"
     inkscape:zoom="1.609375"
     inkscape:cx="9.631068"
     inkscape:cy="17.708738"
     inkscape:window-width="1423"
     inkscape:window-height="1025"
     inkscape:window-x="0"
     inkscape:window-y="22"
     inkscape:window-maximized="0"
     inkscape:current-layer="svg28" />
  <!--!Font Awesome Free 6.7.2 by @fontawesome - https://fontawesome.com License - https://fontawesome.com/license/free Copyright 2025 Fonticons, Inc.-->
  <path
     d="M 10.88,1.28 C 10.88,0.572 10.308,0 9.6,0 8.892,0 8.32,0.572 8.32,1.28 v 8.96 c 0,0.708 0.572,1.28 1.28,1.28 0.708,0 1.28,-0.572 1.28,-1.28 z M 5.1,4.824 C 5.644,4.372 5.716,3.564 5.264,3.02 4.812,2.476 4.004,2.404 3.46,2.856 1.348,4.616 0,7.272 0,10.24 c 0,5.3 4.3,9.6 9.6,9.6 5.3,0 9.6,-4.3 9.6,-9.6 0,-2.968 -1.352,-5.624 -3.464,-7.384 -0.544,-0.452 -1.352,-0.376 -1.804,0.164 -0.452,0.54 -0.376,1.352 0.164,1.804 1.556,1.292 2.54,3.24 2.54,5.416 0,3.888 -3.152,7.04 -7.04,7.04 -3.888,0 -7.04,-3.152 -7.04,-7.04 0,-2.176 0.988,-4.124 2.54,-5.416 z"
     id="path26"
     style="fill:#1a1a1a;stroke-width:0.04" />
</svg>
