<?xml version="1.0" encoding="UTF-8" standalone="no"?>
<svg
   viewBox="0 0 17.92 20.48"
   version="1.1"
   id="svg20"
   sodipodi:docname="logout_password.svg"
   width="17.92"
   height="20.48"
   inkscape:version="1.2.2 (b0a8486541, 2022-12-01)"
   xmlns:inkscape="http://www.inkscape.org/namespaces/inkscape"
   xmlns:sodipodi="http://sodipodi.sourceforge.net/DTD/sodipodi-0.dtd"
   xmlns="http://www.w3.org/2000/svg"
   xmlns:svg="http://www.w3.org/2000/svg">
  <defs
     id="defs24" />
  <sodipodi:namedview
     id="namedview22"
     pagecolor="#ffffff"
     bordercolor="#000000"
     borderopacity="0.25"
     inkscape:showpageshadow="2"
     inkscape:pageopacity="0.0"
     inkscape:pagecheckerboard="0"
     inkscape:deskcolor="#d1d1d1"
     showgrid="false"
     inkscape:zoom="1.609375"
     inkscape:cx="9.0097087"
     inkscape:cy="-249.47573"
     inkscape:window-width="1423"
     inkscape:window-height="1025"
     inkscape:window-x="0"
     inkscape:window-y="22"
     inkscape:window-maximized="0"
     inkscape:current-layer="svg20" />
  <!--!Font Awesome Free 6.7.2 by @fontawesome - https://fontawesome.com License - https://fontawesome.com/license/free Copyright 2025 Fonticons, Inc.-->
  <path
     d="m 5.76,5.76 v 1.92 h 6.4 V 5.76 c 0,-1.768 -1.432,-3.2 -3.2,-3.2 -1.768,0 -3.2,1.432 -3.2,3.2 z M 3.2,7.68 V 5.76 C 3.2,2.58 5.78,0 8.96,0 c 3.18,0 5.76,2.58 5.76,5.76 v 1.92 h 0.64 c 1.412,0 2.56,1.148 2.56,2.56 v 7.68 c 0,1.412 -1.148,2.56 -2.56,2.56 H 2.56 C 1.148,20.48 0,19.332 0,17.92 V 10.24 C 0,8.828 1.148,7.68 2.56,7.68 Z"
     id="path18"
     style="fill:#4d4d4d;stroke-width:0.04" />
</svg>
