<?xml version="1.0" encoding="UTF-8" standalone="no"?>
<svg
   viewBox="0 0 512 512"
   version="1.1"
   id="svg999"
   sodipodi:docname="t2.svg"
   inkscape:version="1.2.2 (b0a8486541, 2022-12-01)"
   xmlns:inkscape="http://www.inkscape.org/namespaces/inkscape"
   xmlns:sodipodi="http://sodipodi.sourceforge.net/DTD/sodipodi-0.dtd"
   xmlns="http://www.w3.org/2000/svg"
   xmlns:svg="http://www.w3.org/2000/svg">
  <defs
     id="defs1003" />
  <sodipodi:namedview
     id="namedview1001"
     pagecolor="#ffffff"
     bordercolor="#000000"
     borderopacity="0.25"
     inkscape:showpageshadow="2"
     inkscape:pageopacity="0.0"
     inkscape:pagecheckerboard="0"
     inkscape:deskcolor="#d1d1d1"
     showgrid="false"
     inkscape:zoom="1.609375"
     inkscape:cx="258.17476"
     inkscape:cy="115.8835"
     inkscape:window-width="1423"
     inkscape:window-height="1023"
     inkscape:window-x="0"
     inkscape:window-y="0"
     inkscape:window-maximized="0"
     inkscape:current-layer="svg999" />
  <!--!Font Awesome Free 6.5.1 by @fontawesome - https://fontawesome.com License - https://fontawesome.com/license/free Copyright 2024 Fonticons, Inc.-->
  <path
     d="M 490.6427,382.43279 378.64442,279.06812 C 356.55083,258.67765 323.55389,254.70549 296.96506,266.79854 L 195.00932,172.70227 V 117.88633 L 72.585924,33.146716 11.374224,89.63979 103.19177,202.62592 h 59.39448 l 101.95574,94.09629 c -13.00749,24.53918 -8.79918,54.99248 13.29442,75.38296 l 111.99827,103.36465 c 13.96393,12.88749 36.53574,12.88749 50.40401,0 l 50.40401,-46.5185 c 13.86829,-12.88749 13.86829,-33.71932 0,-46.51853 z M 328.62298,231.75519 c 27.06706,0 52.50817,9.70973 71.63682,27.36382 l 18.55481,17.12446 c 15.11162,-6.09066 29.45812,-14.56463 41.89175,-26.03977 35.48366,-32.74834 47.53471,-78.8255 36.2488,-120.66568 -2.10415,-7.94432 -12.91184,-10.68072 -19.2243,-4.85488 l -71.1586,65.67321 -64.94179,-9.97456 -10.80769,-59.93562 71.15861,-65.6732 c 6.31246,-5.825848 3.25187,-15.800405 -5.45166,-17.830625 C 351.1948,26.614704 301.269,37.736778 265.88099,70.396837 238.62267,95.553909 225.80645,128.74359 226.47596,161.845 l 78.52314,72.47003 c 7.7471,-1.67716 15.78113,-2.55984 23.62388,-2.55984 z M 229.24962,304.13693 175.01988,254.0876 29.259518,388.69999 c -23.9108211,22.06762 -23.9108211,57.81713 0,79.88475 23.91082,22.0676 62.646349,22.0676 86.557162,0 L 234.03179,359.48248 C 226.7629,341.91665 224.5631,322.762 229.24962,304.13693 Z M 72.585924,449.78313 c -12.624914,0 -22.954388,-9.53321 -22.954388,-21.18491 0,-11.73996 10.233831,-21.1849 22.954388,-21.1849 12.720556,0 22.954387,9.44494 22.954387,21.1849 0,11.6517 -10.233831,21.18491 -22.954387,21.18491 z"
     id="path997"
     style="fill:#ffffff;stroke-width:0.918829" />
</svg>
