<?xml version="1.0" encoding="UTF-8" standalone="no"?>
<svg
   viewBox="0 0 512 512"
   version="1.1"
   id="svg1075"
   sodipodi:docname="recents.svg"
   inkscape:version="1.2.2 (b0a8486541, 2022-12-01)"
   xmlns:inkscape="http://www.inkscape.org/namespaces/inkscape"
   xmlns:sodipodi="http://sodipodi.sourceforge.net/DTD/sodipodi-0.dtd"
   xmlns="http://www.w3.org/2000/svg"
   xmlns:svg="http://www.w3.org/2000/svg">
  <defs
     id="defs1079" />
  <sodipodi:namedview
     id="namedview1077"
     pagecolor="#ffffff"
     bordercolor="#000000"
     borderopacity="0.25"
     inkscape:showpageshadow="2"
     inkscape:pageopacity="0.0"
     inkscape:pagecheckerboard="0"
     inkscape:deskcolor="#d1d1d1"
     showgrid="false"
     inkscape:zoom="1.5800781"
     inkscape:cx="257.26576"
     inkscape:cy="486.36836"
     inkscape:window-width="1423"
     inkscape:window-height="1025"
     inkscape:window-x="0"
     inkscape:window-y="0"
     inkscape:window-maximized="0"
     inkscape:current-layer="svg1075" />
  <!--!Font Awesome Free 6.5.1 by @fontawesome - https://fontawesome.com License - https://fontawesome.com/license/free Copyright 2024 Fonticons, Inc.-->
  <path fill="#d1d1d1" stroke="#d1d1d1"                                                                        
     d="M 459.84,488.31246 H 52.16 c -25.97,0 -47.04,-21.89892 -47.04,-48.89062 V 80.890621 C 5.12,53.898924 26.19,32 52.16,32 h 407.68 c 25.97,0 47.04,21.898924 47.04,48.890621 V 439.42184 c 0,26.9917 -21.07,48.89062 -47.04,48.89062 z M 130.56,121.6328 c -21.658,0 -39.2,18.23213 -39.2,40.74219 0,22.51006 17.542,40.74218 39.2,40.74218 21.658,0 39.2,-18.23212 39.2,-40.74218 0,-22.51006 -17.542,-40.74219 -39.2,-40.74219 z m 0,97.78125 c -21.658,0 -39.2,18.23212 -39.2,40.74218 0,22.51006 17.542,40.74218 39.2,40.74218 21.658,0 39.2,-18.23212 39.2,-40.74218 0,-22.51006 -17.542,-40.74218 -39.2,-40.74218 z m 0,97.78124 c -21.658,0 -39.2,18.23213 -39.2,40.74218 0,22.51006 17.542,40.74219 39.2,40.74219 21.658,0 39.2,-18.23213 39.2,-40.74219 0,-22.51005 -17.542,-40.74218 -39.2,-40.74218 z M 412.8,178.67186 v -32.59374 c 0,-6.72247 -5.292,-12.22266 -11.76,-12.22266 h -196 c -6.468,0 -11.76,5.50019 -11.76,12.22266 v 32.59374 c 0,6.72246 5.292,12.22266 11.76,12.22266 h 196 c 6.468,0 11.76,-5.5002 11.76,-12.22266 z m 0,97.78124 v -32.59374 c 0,-6.72246 -5.292,-12.22266 -11.76,-12.22266 h -196 c -6.468,0 -11.76,5.5002 -11.76,12.22266 v 32.59374 c 0,6.72246 5.292,12.22266 11.76,12.22266 h 196 c 6.468,0 11.76,-5.5002 11.76,-12.22266 z m 0,97.78125 V 341.6406 c 0,-6.72246 -5.292,-12.22266 -11.76,-12.22266 h -196 c -6.468,0 -11.76,5.5002 -11.76,12.22266 v 32.59375 c 0,6.72246 5.292,12.22265 11.76,12.22265 h 196 c 6.468,0 11.76,-5.50019 11.76,-12.22265 z"
     id="path1073"
     style="stroke-width:0.999087;fill-opacity:1" />
</svg>
