<?xml version="1.0" encoding="UTF-8" standalone="no"?>
<!-- Generator: Gravit.io -->

<svg
   style="isolation:isolate"
   viewBox="0 0 18.4 18.4"
   width="18.4pt"
   height="18.4pt"
   version="1.1"
   id="svg48"
   sodipodi:docname="logout_reboot.svg"
   inkscape:version="1.2.2 (b0a8486541, 2022-12-01)"
   xmlns:inkscape="http://www.inkscape.org/namespaces/inkscape"
   xmlns:sodipodi="http://sodipodi.sourceforge.net/DTD/sodipodi-0.dtd"
   xmlns="http://www.w3.org/2000/svg"
   xmlns:svg="http://www.w3.org/2000/svg">
  <defs
     id="defs52" />
  <sodipodi:namedview
     id="namedview50"
     pagecolor="#ffffff"
     bordercolor="#000000"
     borderopacity="0.25"
     inkscape:showpageshadow="2"
     inkscape:pageopacity="0.0"
     inkscape:pagecheckerboard="0"
     inkscape:deskcolor="#d1d1d1"
     inkscape:document-units="pt"
     showgrid="false"
     inkscape:zoom="12.875"
     inkscape:cx="12.31068"
     inkscape:cy="12.271845"
     inkscape:window-width="1423"
     inkscape:window-height="1028"
     inkscape:window-x="0"
     inkscape:window-y="22"
     inkscape:window-maximized="0"
     inkscape:current-layer="svg48" />
  <linearGradient
     id="_lgradient_57"
     x1="0"
     y1="0.5"
     x2="1"
     y2="0.5"
     gradientTransform="scale(18.4)"
     gradientUnits="userSpaceOnUse">
    <stop
       offset="0%"
       stop-opacity="1"
       style="stop-color:rgb(88,0,226)"
       id="stop41" />
    <stop
       offset="100%"
       stop-opacity="1"
       style="stop-color:rgb(255,0,230)"
       id="stop43" />
  </linearGradient>
  <path
     d="M 4.292,1.418 4.34,1.388 C 5.8,0.48 7.484,0 9.2,0 c 1.556,0 3.088,0.396 4.452,1.148 v 0 c 0.3864,0.214 0.526,0.7016 0.312,1.088 v 0 C 13.75,2.6224 13.2624,2.762 12.876,2.548 v 0 C 11.752,1.924 10.488,1.6 9.2,1.6 7.786,1.6 6.4036,1.9928 5.2028,2.7388 v 0 L 5.496,2.856 v 0 c 0.4108,0.1656 0.6104,0.6324 0.446,1.042 v 0 C 5.7776,4.3076 5.3124,4.5072 4.904,4.344 v 0 L 3.0268,3.5932 C 2.6168,3.4292 2.3544,2.9444 2.4412,2.5116 L 2.816,0.644 v 0 C 2.902,0.2112 3.3232,-0.07 3.756,0.016 v 0 c 0.4328,0.086 0.714,0.5072 0.628,0.94 v 0 L 4.292,1.418 Z M 2.516,12.82 v 0 c 0.212,0.3884 0.0684,0.8752 -0.32,1.086 v 0 C 1.8076,14.1168 1.3216,13.9724 1.112,13.584 v 0 C 0.38,12.24 0,10.732 0,9.2 0,8.032 0.22,6.876 0.652,5.796 v 0 C 0.8152,5.3852 1.2812,5.1848 1.692,5.348 v 0 c 0.4108,0.1632 0.6112,0.6292 0.448,1.04 v 0 C 1.78,7.28 1.6,8.236 1.6,9.2 c 0,1.264 0.316,2.508 0.916,3.62 v 0 0 0 z m 10.208,3.112 v 0 c 0.3908,-0.2032 0.8748,-0.0508 1.08,0.34 v 0 c 0.2052,0.3908 0.0548,0.8748 -0.336,1.08 v 0 C 12.152,18.04 10.688,18.4 9.2,18.4 7.768,18.4 6.352,18.068 5.072,17.424 v 0 C 4.6768,17.2252 4.5172,16.7432 4.716,16.348 v 0 c 0.1988,-0.3952 0.6808,-0.5548 1.076,-0.356 v 0 C 6.848,16.524 8.016,16.8 9.2,16.8 c 1.228,0 2.436,-0.296 3.524,-0.868 v 0 0 z m 3.6,-9.388 v 0 C 16.1696,6.1312 16.38,5.6704 16.794,5.516 v 0 c 0.414,-0.1544 0.8756,0.0568 1.03,0.472 v 0 c 0.38,1.028 0.576,2.116 0.576,3.212 0,1.448 -0.34,2.88 -1,4.172 v 0 c -0.1988,0.3928 -0.68,0.5488 -1.074,0.348 v 0 c -0.394,-0.2008 -0.5508,-0.6832 -0.35,-1.076 v 0 C 16.52,11.576 16.8,10.396 16.8,9.2 16.8,8.292 16.64,7.396 16.324,6.544 v 0 z m -1.696,8.498 c 0,-0.4416 0.3584,-0.8 0.8,-0.8 0.4416,0 0.8,0.3584 0.8,0.8 0,0.4416 -0.3584,0.8 -0.8,0.8 -0.4416,0 -0.8,-0.3584 -0.8,-0.8 z M 2.516,15.244 c 0,-0.4416 0.3584,-0.8 0.8,-0.8 0.4416,0 0.8,0.3584 0.8,0.8 0,0.4416 -0.3584,0.8 -0.8,0.8 -0.4416,0 -0.8,-0.3584 -0.8,-0.8 z M 14.628,3.736 c 0,-0.4416 0.3584,-0.8 0.8,-0.8 0.4416,0 0.8,0.3584 0.8,0.8 0,0.4416 -0.3584,0.8 -0.8,0.8 -0.4416,0 -0.8,-0.3584 -0.8,-0.8 z M 6,9.2 C 6,8.352 6.336,7.536 6.936,6.936 7.536,6.336 8.352,6 9.2,6 c 0.848,0 1.664,0.336 2.264,0.936 0.6,0.6 0.936,1.416 0.936,2.264 0,0.848 -0.336,1.664 -0.936,2.264 C 10.864,12.064 10.048,12.4 9.2,12.4 8.352,12.4 7.536,12.064 6.936,11.464 6.336,10.864 6,10.048 6,9.2 Z m -1.6,0 C 4.4,7.928 4.908,6.704 5.804,5.804 6.704,4.908 7.928,4.4 9.2,4.4 c 1.272,0 2.496,0.508 3.396,1.404 C 13.492,6.704 14,7.928 14,9.2 14,10.472 13.492,11.696 12.596,12.596 11.696,13.492 10.472,14 9.2,14 7.928,14 6.704,13.492 5.804,12.596 4.908,11.696 4.4,10.472 4.4,9.2 Z"
     fill-rule="evenodd"
     fill="url(#_lgradient_57)"
     id="path46"
     style="fill:url(#_lgradient_57);stroke-width:0.4" />
</svg>
