<?xml version="1.0" encoding="UTF-8" standalone="no"?>
<!-- Generator: Gravit.io -->

<svg
   style="isolation:isolate"
   viewBox="0 0 18.745363 18.82328"
   width="18.745363pt"
   height="18.82328pt"
   version="1.1"
   id="svg9"
   sodipodi:docname="logout_exit.svg"
   inkscape:version="1.2.2 (b0a8486541, 2022-12-01)"
   xmlns:inkscape="http://www.inkscape.org/namespaces/inkscape"
   xmlns:sodipodi="http://sodipodi.sourceforge.net/DTD/sodipodi-0.dtd"
   xmlns="http://www.w3.org/2000/svg"
   xmlns:svg="http://www.w3.org/2000/svg">
  <defs
     id="defs13" />
  <sodipodi:namedview
     id="namedview11"
     pagecolor="#ffffff"
     bordercolor="#000000"
     borderopacity="0.25"
     inkscape:showpageshadow="2"
     inkscape:pageopacity="0.0"
     inkscape:pagecheckerboard="0"
     inkscape:deskcolor="#d1d1d1"
     inkscape:document-units="pt"
     showgrid="false"
     inkscape:zoom="12.875"
     inkscape:cx="12.621359"
     inkscape:cy="12.504854"
     inkscape:window-width="1423"
     inkscape:window-height="1028"
     inkscape:window-x="0"
     inkscape:window-y="22"
     inkscape:window-maximized="0"
     inkscape:current-layer="svg9" />
  <linearGradient
     id="_lgradient_56"
     x1="0.21875"
     y1="0.17506042"
     x2="1.0989902"
     y2="1.1181589"
     gradientTransform="matrix(18.7456,0,0,18.8232,1.8358946e-4,-1.3794376e-4)"
     gradientUnits="userSpaceOnUse">
    <stop
       offset="0%"
       stop-opacity="1"
       style="stop-color:rgb(252,203,144)"
       id="stop2" />
    <stop
       offset="83.91304347826087%"
       stop-opacity="1"
       style="stop-color:rgb(213,126,235)"
       id="stop4" />
  </linearGradient>
  <path
     d="m 5.5669836,11.873062 0.752,0.8764 4.9112004,-4.1979999 1.1912,1.3932 c 0.1348,0.1575999 0.2768,0.1203999 0.3176,-0.0828 l 0.73,-3.6596 c 0.0404,-0.2036 -0.0948,-0.3616 -0.302,-0.3532 l -3.7288004,0.1516 c -0.2068,0.0084 -0.266,0.1432 -0.1312,0.3008 l 1.1912004,1.3932 -2.7124004,2.3187999 v 0 c -0.2364,0.202 -0.5924,0.174 -0.7944,-0.0624 v 0 c -0.202,-0.2364 -0.1744,-0.5924 0.062,-0.7944 v 0 l 1.856,-1.5864 -1.2496,-1.4616 c -0.6736,-0.788 -0.3788,-1.416 0.6576,-1.4012 l 4.5576004,0.0648 c 1.0364,0.0148 1.7588,0.8596 1.612,1.886 l -0.6452,4.5119999 c -0.1468,1.0264 -0.8128,1.2196 -1.4864,0.4316 l -1.2496,-1.462 -4.4432004,3.7984 v 0 c -0.1516,0.1296 -0.3808,0.1312 -0.6012,0.0284 -0.1448,-0.0448 -0.2804,-0.128 -0.386,-0.2512 l -1.1508,-1.3404 c -0.114,-0.1332 -0.1768,-0.2928 -0.1904,-0.4544 -0.0528,-0.2208 -0.0116,-0.4296 0.132,-0.552 v 0 l 1.1644,-1.112 v 0 c 0.2364,-0.202 0.5924,-0.174 0.7944,0.0624 v 0 c 0.202,0.2364 0.174,0.5924 -0.062,0.7944 v 0 z m 11.4744004,-1.422 v 0 c 0.064,-0.4671999 0.496,-0.7951999 0.964,-0.7319999 v 0 c 0.468,0.0628 0.796,0.4943999 0.732,0.9635999 v 0 c -0.3188,2.3508 -1.5168,4.498 -3.3532,6.006 -1.836,1.504 -4.1752,2.2616 -6.5452004,2.1172 -2.4896,-0.152 -4.8204,-1.2884 -6.4768,-3.1552 -1.65160001,-1.8704 -2.49640001,-4.3224 -2.34480001,-6.8115999 0.1516,-2.4896 1.28800001,-4.8204 3.15480001,-6.4768 1.8708,-1.65160004 4.3224,-2.49680004 6.812,-2.34480004 v 0 c 0.4712004,0.0288 0.8308004,0.4348 0.8020004,0.906 v 0 c -0.0288,0.47120004 -0.4348,0.83080004 -0.9060004,0.80200004 v 0 c -2.0368,-0.1244 -4.042,0.568 -5.5732,1.9188 -1.5268,1.3556 -2.4576,3.262 -2.5816,5.2988 -0.124,2.0367999 0.568,4.0419999 1.9192,5.5727999 1.3556,1.5272 3.2616,2.4576 5.2984,2.582 1.9388004,0.118 3.8536004,-0.4984 5.3560004,-1.7308 1.5024,-1.2328 2.4796,-2.9908 2.7424,-4.916 z m -3.6408,-7.6279999 v 0 c -0.404,-0.2448 -0.5332,-0.7712 -0.2884,-1.1748 v 0 c 0.2444,-0.404 0.7708,-0.5332 1.1748,-0.2884 v 0 c 1.7192,1.0432 3.0636,2.6124 3.8288,4.472 v 0 c 0.1816,0.4368 -0.0256,0.938 -0.4624,1.1184 v 0 c -0.4368,0.1804 -0.9388,-0.028 -1.1204,-0.4648 v 0 c -0.6268,-1.5256 -1.7232,-2.8052 -3.1324,-3.6624 z"
     fill-rule="evenodd"
     fill="url(#_lgradient_56)"
     id="path7"
     style="fill:url(#_lgradient_56);stroke-width:0.4" />
</svg>
