<?xml version="1.0" encoding="UTF-8" standalone="no"?>
<!-- Generator: Gravit.io -->

<svg
   style="isolation:isolate"
   viewBox="0 0 15.2 18.404833"
   width="15.2pt"
   height="18.404833pt"
   version="1.1"
   id="svg35"
   sodipodi:docname="logout_password.svg"
   inkscape:version="1.2.2 (b0a8486541, 2022-12-01)"
   xmlns:inkscape="http://www.inkscape.org/namespaces/inkscape"
   xmlns:sodipodi="http://sodipodi.sourceforge.net/DTD/sodipodi-0.dtd"
   xmlns="http://www.w3.org/2000/svg"
   xmlns:svg="http://www.w3.org/2000/svg">
  <defs
     id="defs39" />
  <sodipodi:namedview
     id="namedview37"
     pagecolor="#ffffff"
     bordercolor="#000000"
     borderopacity="0.25"
     inkscape:showpageshadow="2"
     inkscape:pageopacity="0.0"
     inkscape:pagecheckerboard="0"
     inkscape:deskcolor="#d1d1d1"
     inkscape:document-units="pt"
     showgrid="false"
     inkscape:zoom="12.875"
     inkscape:cx="8.815534"
     inkscape:cy="12.271845"
     inkscape:window-width="1423"
     inkscape:window-height="1028"
     inkscape:window-x="0"
     inkscape:window-y="22"
     inkscape:window-maximized="0"
     inkscape:current-layer="svg35" />
  <linearGradient
     id="_lgradient_55"
     x1="0"
     y1="0.5"
     x2="0.90748805"
     y2="0.92007786"
     gradientTransform="matrix(-15.2,0,0,18.4048,15.2,3.248983e-5)"
     gradientUnits="userSpaceOnUse">
    <stop
       offset="1.6666666666666667%"
       stop-opacity="1"
       style="stop-color:rgb(242,231,63)"
       id="stop28" />
    <stop
       offset="84.58333333333333%"
       stop-opacity="1"
       style="stop-color:rgb(94,239,229)"
       id="stop30" />
  </linearGradient>
  <path
     d="m 5,6.8048325 h 6 v -0.4 -1.996 c 0,-0.124 -0.016,-0.244 -0.044,-0.364 -0.036,-0.156 -0.08,-0.312 -0.14,-0.46 -0.056,-0.148 -0.124,-0.292 -0.204,-0.432 -0.06,-0.108 -0.132,-0.208 -0.216,-0.3 -0.216,-0.236 -0.456,-0.456 -0.716,-0.652 -0.192,-0.144 -0.404,-0.268 -0.624,-0.368 -0.192,-0.084 -0.396,-0.148 -0.6,-0.188 -0.204,-0.036 -0.412,-0.052 -0.616,-0.04 -0.232,0.012 -0.46,0.044 -0.68,0.1 -0.196,0.052 -0.388,0.124 -0.568,0.216 -0.184,0.092 -0.356,0.208 -0.512,0.34 -0.184,0.152 -0.352,0.324 -0.504,0.512 -0.372,0.46 -0.576,1.036 -0.576,1.632 v 2 z m 1.8668,6.3367995 c -0.4384,-0.2536 -0.7336,-0.7276 -0.7336,-1.27 0,-0.8096 0.6572,-1.4668 1.4668,-1.4668 0.8096,0 1.4668,0.6572 1.4668,1.4668 0,0.5424 -0.2952,1.0164 -0.7336,1.27 v 1.1744 c 0,0.2696 -0.2188,0.4888 -0.4888,0.4888 H 7.3556 c -0.27,0 -0.4888,-0.2192 -0.4888,-0.4888 v -1.1744 z m 8.3332,-0.5368 c 0,-0.4416 -0.3584,-0.8 -0.8,-0.8 -0.4416,0 -0.8,0.3584 -0.8,0.8 0,0.4416 0.3584,0.8 0.8,0.8 0.4416,0 0.8,-0.3584 0.8,-0.8 z M 3.4,6.8048325 H 1.6 c -0.8832,0 -1.6,0.7168 -1.6,1.6 v 8.3999995 c 0,0.8832 0.7168,1.6 1.6,1.6 h 12 c 0.8832,0 1.6,-0.7168 1.6,-1.6 v -2 0 c 0,-0.4416 -0.3584,-0.8 -0.8,-0.8 v 0 c -0.4416,0 -0.8,0.3584 -0.8,0.8 v 0 1.2 c 0,0.4416 -0.3584,0.8 -0.8,0.8 H 4 v -2.9872 c 0,-0.338 -0.2688,-0.6128 -0.6,-0.6128 v 0 0 c -0.3312,0 -0.6,0.2748 -0.6,0.6128 v 2.9872 0 H 2.4 c -0.4416,0 -0.8,-0.3584 -0.8,-0.8 V 9.2048325 c 0,-0.4416 0.3584,-0.8 0.8,-0.8 h 10.4 c 0.4416,0 0.8,0.3584 0.8,0.8 v 1.1999995 0 c 0,0.4416 0.3584,0.8 0.8,0.8 v 0 c 0.4416,0 0.8,-0.3584 0.8,-0.8 v 0 -1.9999995 c 0,-0.8832 -0.7168,-1.6 -1.6,-1.6 h -1 v -0.4 -2 c 0,-0.004 0,-0.004 0,-0.008 -0.004,-0.236 -0.032,-0.472 -0.084,-0.704 -0.052,-0.232 -0.12,-0.464 -0.208,-0.684 -0.084,-0.224 -0.188,-0.44 -0.308,-0.648 -0.116,-0.208 -0.256,-0.4 -0.416,-0.58 -0.284,-0.312 -0.6,-0.6 -0.94,-0.85600001 -0.292,-0.22 -0.608,-0.404 -0.94,-0.552 -0.304,-0.136 -0.624,-0.236 -0.952,-0.3 -0.328,-0.06 -0.66,-0.084 -0.992,-0.068 -0.336,0.016 -0.672,0.068 -1,0.152 -0.312,0.08 -0.612,0.192 -0.896,0.34 -0.288,0.148 -0.56,0.324 -0.808,0.53200001 -0.268,0.224 -0.508,0.468 -0.728,0.74 -0.6,0.748 -0.928,1.676 -0.928,2.636 v 2 z M 4,11.804832 c 0,-0.3312 -0.2688,-0.6 -0.6,-0.6 -0.3312,0 -0.6,0.2688 -0.6,0.6 0,0.3312 0.2688,0.6 0.6,0.6 0.3312,0 0.6,-0.2688 0.6,-0.6 z"
     fill-rule="evenodd"
     fill="url(#_lgradient_55)"
     id="path33"
     style="fill:url(#_lgradient_55);stroke-width:0.4" />
</svg>
