<?xml version="1.0" encoding="UTF-8" standalone="no"?>
<!-- Generator: Gravit.io -->

<svg
   style="isolation:isolate"
   viewBox="0 0 19.199928 19.199978"
   width="19.199928pt"
   height="19.199978pt"
   version="1.1"
   id="svg78"
   sodipodi:docname="logout_suspend.svg"
   inkscape:version="1.2.2 (b0a8486541, 2022-12-01)"
   xmlns:inkscape="http://www.inkscape.org/namespaces/inkscape"
   xmlns:sodipodi="http://sodipodi.sourceforge.net/DTD/sodipodi-0.dtd"
   xmlns="http://www.w3.org/2000/svg"
   xmlns:svg="http://www.w3.org/2000/svg">
  <defs
     id="defs82" />
  <sodipodi:namedview
     id="namedview80"
     pagecolor="#ffffff"
     bordercolor="#000000"
     borderopacity="0.25"
     inkscape:showpageshadow="2"
     inkscape:pageopacity="0.0"
     inkscape:pagecheckerboard="0"
     inkscape:deskcolor="#d1d1d1"
     inkscape:document-units="pt"
     showgrid="false"
     inkscape:zoom="12.875"
     inkscape:cx="12.854369"
     inkscape:cy="12.815534"
     inkscape:window-width="1423"
     inkscape:window-height="1028"
     inkscape:window-x="0"
     inkscape:window-y="22"
     inkscape:window-maximized="0"
     inkscape:current-layer="svg78" />
  <linearGradient
     id="_lgradient_54"
     x1="0.09375"
     y1="0.093749575"
     x2="0.89960104"
     y2="0.86502695"
     gradientTransform="matrix(19.2,0,0,19.2,-6.7200956e-5,-2.9279332e-5)"
     gradientUnits="userSpaceOnUse">
    <stop
       offset="0%"
       stop-opacity="1"
       style="stop-color:rgb(220,80,141)"
       id="stop69" />
    <stop
       offset="50.416666666666664%"
       stop-opacity="1"
       style="stop-color:rgb(245,139,123)"
       id="stop71" />
    <stop
       offset="97.91666666666666%"
       stop-opacity="1"
       style="stop-color:rgb(56,249,215)"
       id="stop73" />
  </linearGradient>
  <path
     d="m 13.554333,16.471171 v 0 c 0.3996,-0.2284 0.9116,-0.09 1.1424,0.3084 v 0 c 0.2308,0.3984 0.0936,0.9096 -0.3064,1.14 v 0 c -1.5548,0.8952 -3.328,1.336 -5.1176002,1.2748 -1.6228,-0.0552 -3.2064,-0.5228 -4.602,-1.3556 v 0 c -0.3952,-0.2368 -0.5236,-0.7504 -0.2868,-1.1456 v 0 c 0.2372,-0.3952 0.7504,-0.5236 1.146,-0.2868 v 0 c 1.15,0.6908 2.4564,1.0736 3.7996,1.1196 1.4812002,0.0504 2.9424002,-0.3132 4.2248002,-1.0548 v 0 0 0 0 0 0 z m 3.1448,-10.4088003 v 0 c -0.2072,-0.4128 -0.0404,-0.9152 0.3724,-1.1212 v 0 c 0.4128,-0.206 0.914,-0.0384 1.1192,0.3744 v 0 c 0.7152,1.4276 1.058,3.014 1.0036,4.6116 -0.0416,1.2180003 -0.312,2.4156003 -0.8012,3.5268003 v 0 c -0.1848,0.4224 -0.678,0.6152 -1.1004,0.43 v 0 c -0.4224,-0.1848 -0.6152,-0.678 -0.43,-1.1004 v 0 c 0.4072,-0.9176 0.6288,-1.908 0.6628,-2.9132003 0.0452,-1.3184 -0.24,-2.6268 -0.8264,-3.808 v 0 0 0 0 0 0 z m -10.5348002,-3.6084 v 0 c -0.4148,0.198 -0.914,0.022 -1.1144,-0.3928 v 0 c -0.2,-0.4148 -0.026,-0.9144 0.3888,-1.11439998 v 0 c 1.3968,-0.6708 2.9364,-0.994 4.4884,-0.9412 1.4932002,0.0508 2.9584002,0.4476 4.2700002,1.16479998 v 0 c 0.4052,0.2212 0.5544,0.7296 0.3332,1.1348 v 0 c -0.2212,0.4048 -0.7296,0.554 -1.1348,0.3328 v 0 c -1.0824,-0.5924 -2.2908,-0.9216 -3.5252002,-0.964 -1.2808,-0.0436 -2.5512,0.2224 -3.706,0.78 v 0 0 0 0 0 z m -4.0884,9.6624003 v 0 c 0.1468,0.436 -0.0892,0.9092 -0.5264,1.0556 v 0 c -0.4372,0.1464 -0.9112,-0.0908 -1.0576,-0.5288 v 0 c -0.3596,-1.0856 -0.5252,-2.2272 -0.4864,-3.3704003 0.0516,-1.51 0.4568,-2.9912 1.1912,-4.3152 v 0 c 0.2212,-0.4028 0.7284,-0.5484 1.1324,-0.3248 v 0 c 0.404,0.2236 0.5504,0.732 0.3268,1.1348 v 0 c -0.6052,1.0944 -0.9392,2.3148 -0.982,3.562 -0.032,0.9472003 0.1028,1.8872003 0.402,2.7868003 v 0 0 0 0 z M 16.785533,3.5343707 c -0.016,0.4608 -0.4024,0.8216 -0.8628,0.806 -0.4604,-0.0156 -0.8216,-0.4024 -0.806,-0.8628 0.0156,-0.4604 0.4024,-0.8216 0.8628,-0.8056 0.4604,0.0156 0.8216,0.402 0.806,0.8624 v 0 0 0 z M 3.7447328,15.105171 c -0.0156,0.4604 -0.402,0.8216 -0.8624,0.806 -0.4608,-0.016 -0.8216,-0.4024 -0.806,-0.8628 0.0156,-0.4604 0.4024,-0.8216 0.8628,-0.806 0.4604,0.0156 0.8216,0.4024 0.8056,0.8628 v 0 0 z m 13.3636002,0.4556 c 0.0156,-0.4604 -0.3456,-0.8468 -0.806,-0.8628 -0.4604,-0.0156 -0.8468,0.3456 -0.8628,0.806 -0.0156,0.4604 0.3456,0.8472 0.806,0.8628 0.4604,0.0156 0.8472,-0.3456 0.8628,-0.806 v 0 z M 4.3459328,3.1103707 c 0.0156,-0.4604 -0.3452,-0.8472 -0.8056,-0.8628 -0.4608,-0.0156 -0.8472,0.3456 -0.8628,0.806 -0.016,0.4604 0.3452,0.8468 0.8056,0.8628 0.4608,0.0156 0.8472,-0.3456 0.8628,-0.806 z m 3.5412,3.6896 h 1.2 v 4.9216003 h -1.2 z m 2.4000002,0 h 1.2 v 4.9216003 h -1.2 z m 3.0768,0.596 v 0 c -0.148,-0.298 -0.0268,-0.6592 0.27,-0.806 v 0 c 0.2968,-0.1468 0.6564,-0.026 0.802,0.27 v 0 c 0.372,0.748 0.564,1.568 0.564,2.4 0,1.4320003 -0.568,2.8080003 -1.58,3.8200003 -1.012,1.012 -2.388,1.58 -3.8200002,1.58 -0.34,0 -0.68,-0.032 -1.012,-0.096 v 0 c -0.3268,-0.062 -0.542,-0.3756 -0.48,-0.7 v 0 c 0.062,-0.3244 0.3772,-0.538 0.704,-0.476 v 0 c 0.26,0.048 0.524,0.072 0.788,0.072 1.1120002,0 2.1840002,-0.444 2.9680002,-1.228 0.788,-0.788 1.232,-1.856 1.232,-2.9720003 0,-0.648 -0.148,-1.284 -0.436,-1.864 z M 5.9959328,11.419971 v 0 c 0.172,0.2848 0.0808,0.654 -0.204,0.824 v 0 c -0.2848,0.17 -0.654,0.0768 -0.824,-0.208 v 0 c -0.504,-0.836 -0.768,-1.796 -0.768,-2.7760003 0,-1.432 0.568,-2.804 1.58,-3.816 1.012,-1.012 2.388,-1.584 3.82,-1.584 0.248,0 0.4920002,0.016 0.7360002,0.052 v 0 c 0.3288,0.044 0.5592,0.346 0.514,0.674 v 0 c -0.0452,0.328 -0.3472,0.558 -0.674,0.514 v 0 c -0.1920002,-0.028 -0.3840002,-0.04 -0.5760002,-0.04 -1.112,0 -2.184,0.444 -2.968,1.232 -0.788,0.788 -1.232,1.856 -1.232,2.968 0,0.7600003 0.208,1.5080003 0.596,2.1600003 z"
     fill-rule="evenodd"
     fill="url(#_lgradient_54)"
     id="path76"
     style="fill:url(#_lgradient_54);stroke-width:0.4" />
</svg>
