<?xml version="1.0" encoding="UTF-8" standalone="no"?>
<!-- Generator: Gravit.io -->

<svg
   style="isolation:isolate"
   viewBox="0 0 18.723183 18.800013"
   width="18.723183pt"
   height="18.800013pt"
   version="1.1"
   id="svg63"
   sodipodi:docname="logout_shutdown.svg"
   inkscape:version="1.2.2 (b0a8486541, 2022-12-01)"
   xmlns:inkscape="http://www.inkscape.org/namespaces/inkscape"
   xmlns:sodipodi="http://sodipodi.sourceforge.net/DTD/sodipodi-0.dtd"
   xmlns="http://www.w3.org/2000/svg"
   xmlns:svg="http://www.w3.org/2000/svg">
  <defs
     id="defs67" />
  <sodipodi:namedview
     id="namedview65"
     pagecolor="#ffffff"
     bordercolor="#000000"
     borderopacity="0.25"
     inkscape:showpageshadow="2"
     inkscape:pageopacity="0.0"
     inkscape:pagecheckerboard="0"
     inkscape:deskcolor="#d1d1d1"
     inkscape:document-units="pt"
     showgrid="false"
     inkscape:zoom="12.875"
     inkscape:cx="12.543689"
     inkscape:cy="12.504854"
     inkscape:window-width="1423"
     inkscape:window-height="1028"
     inkscape:window-x="0"
     inkscape:window-y="22"
     inkscape:window-maximized="0"
     inkscape:current-layer="svg63" />
  <linearGradient
     id="_lgradient_58"
     x1="-0.014458464"
     y1="0.009839246"
     x2="1.0164566"
     y2="1.072293"
     gradientTransform="matrix(18.7232,0,0,18.8,7.86743e-5,1.2036977e-5)"
     gradientUnits="userSpaceOnUse">
    <stop
       offset="0%"
       stop-opacity="1"
       style="stop-color:rgb(249,212,35)"
       id="stop54" />
    <stop
       offset="51.56237565086822%"
       stop-opacity="1"
       style="stop-color:rgb(255,78,80)"
       id="stop56" />
    <stop
       offset="99.1304347826087%"
       stop-opacity="1"
       style="stop-color:rgb(138,35,135)"
       id="stop58" />
  </linearGradient>
  <path
     d="m 11.402479,7.868012 v 0 c -0.3048,-0.32 -0.2924,-0.8272 0.028,-1.132 v 0 c 0.32,-0.3048 0.8272,-0.292 1.132,0.028 v 0 c 0.152,0.16 0.292,0.332 0.416,0.512 0.516,0.74 0.796,1.62 0.796,2.52 0,1.436 -0.7,2.784 -1.876,3.608 -0.74,0.516 -1.62,0.796 -2.5200003,0.796 -1.436,0 -2.784,-0.7 -3.608,-1.876 -0.516,-0.74 -0.796,-1.62 -0.796,-2.52 0,-1.128 0.432,-2.216 1.208,-3.036 v 0 c 0.3044,-0.32 0.8116,-0.3328 1.132,-0.028 v 0 c 0.32,0.3048 0.3324,0.812 0.028,1.132 v 0 c -0.492,0.52 -0.768,1.212 -0.768,1.932 0,0.572 0.176,1.132 0.504,1.6 0.528,0.748 1.384,1.196 2.3,1.196 0.572,0 1.1320003,-0.176 1.6000003,-0.504 0.748,-0.528 1.196,-1.384 1.196,-2.3 0,-0.572 -0.176,-1.132 -0.508,-1.6 -0.08,-0.116 -0.168,-0.228 -0.264,-0.328 z m -2.0280003,-3.268 v 0 c 0.4416,0 0.8000003,0.3584 0.8000003,0.8 v 4 c 0,0.4416 -0.3584003,0.8 -0.8000003,0.8 v 0 c -0.4416,0 -0.8,-0.3584 -0.8,-0.8 v -4 c 0,-0.4416 0.3584,-0.8 0.8,-0.8 z m 3.5668003,-2.0192 v 0 c -0.418,-0.2196 -0.5788,-0.7372 -0.3592,-1.1548 v 0 c 0.2196,-0.418 0.7372,-0.57919996 1.1548,-0.3596 v 0 c 1.7796,0.9368 3.2172,2.4216 4.094,4.2308 v 0 c 0.208,0.4252 0.0316,0.938 -0.3936,1.1444 v 0 c -0.4248,0.2068 -0.9384,0.0296 -1.1464,-0.3956 v 0 c -0.7188,-1.4844 -1.8908,-2.6952 -3.3496,-3.4652 z m -3.6404003,-0.9808 v 0 c 0.4416,-0.0024 0.7984003,-0.3624 0.7960003,-0.80399996 v 0 c -0.002,-0.4416 -0.3624003,-0.7984 -0.8040003,-0.796000003023 v 0 C 6.9888787,0.01201204 4.7688787,0.87201204 3.0568787,2.412012 c -1.712,1.544 -2.80000003,3.66 -3.05200003,5.952 v 0 c -0.0484,0.4392 0.2688,0.8356 0.708,0.884 v 0 c 0.43960003,0.0484 0.83560003,-0.2688 0.88400003,-0.708 v 0 c 0.208,-1.9 1.112,-3.66 2.532,-4.936 1.42,-1.28 3.26,-1.992 5.172,-2.004 z m -7.232,10.6 v 0 c -0.1588,-0.4128 -0.6232,-0.6188 -1.036,-0.46 v 0 c -0.41280003,0.1588 -0.61880003,0.6232 -0.46000003,1.036 v 0 c 0.76400003,1.972 2.16800003,3.632 3.98800003,4.712 v 0 c 0.38,0.2252 0.8708,0.0996 1.096,-0.28 v 0 c 0.2252,-0.3796 0.1,-0.8708 -0.28,-1.096 v 0 c -1.512,-0.896 -2.676,-2.272 -3.308,-3.912 z m 7.028,4.996 v 0 c -0.4416,-0.0068 -0.8052,0.3464 -0.812,0.788 v 0 c -0.0064,0.4416 0.3464,0.8052 0.788,0.812 v 0 l 0.264,0.004 c 0.004,0 0.008,0 0.012,0 2.3640003,0 4.6440003,-0.892 6.3800003,-2.496 1.736,-1.604 2.808,-3.808 2.992,-6.164 v 0 c 0.0332,-0.4392 -0.2964,-0.8248 -0.736,-0.86 v 0 c -0.4392,-0.0352 -0.8244,0.2944 -0.86,0.736 v 0 c -0.152,1.952 -1.04,3.78 -2.48,5.112 -1.44,1.332 -3.328,2.072 -5.2880003,2.072 z"
     fill-rule="evenodd"
     fill="url(#_lgradient_58)"
     id="path61"
     style="fill:url(#_lgradient_58);stroke-width:0.4" />
</svg>
