<?xml version="1.0" encoding="UTF-8" standalone="no"?>
<!-- Generator: Gravit.io -->

<svg
   style="isolation:isolate"
   viewBox="0 0 18.823168 18.793835"
   width="18.823168pt"
   height="18.793835pt"
   version="1.1"
   id="svg22"
   sodipodi:docname="logout_hibernate.svg"
   inkscape:version="1.2.2 (b0a8486541, 2022-12-01)"
   xmlns:inkscape="http://www.inkscape.org/namespaces/inkscape"
   xmlns:sodipodi="http://sodipodi.sourceforge.net/DTD/sodipodi-0.dtd"
   xmlns="http://www.w3.org/2000/svg"
   xmlns:svg="http://www.w3.org/2000/svg">
  <defs
     id="defs26" />
  <sodipodi:namedview
     id="namedview24"
     pagecolor="#ffffff"
     bordercolor="#000000"
     borderopacity="0.25"
     inkscape:showpageshadow="2"
     inkscape:pageopacity="0.0"
     inkscape:pagecheckerboard="0"
     inkscape:deskcolor="#d1d1d1"
     inkscape:document-units="pt"
     showgrid="false"
     inkscape:zoom="12.875"
     inkscape:cx="12.543689"
     inkscape:cy="-4.5048544"
     inkscape:window-width="1423"
     inkscape:window-height="1028"
     inkscape:window-x="0"
     inkscape:window-y="22"
     inkscape:window-maximized="0"
     inkscape:current-layer="svg22" />
  <linearGradient
     id="_lgradient_38"
     x1="0.22078557"
     y1="0.047239967"
     x2="0.9022491"
     y2="0.90614605"
     gradientTransform="matrix(18.8232,0,0,18.794,-1.0542353e-5,-2.0639583e-5)"
     gradientUnits="userSpaceOnUse">
    <stop
       offset="2.608695652173913%"
       stop-opacity="1"
       style="stop-color:rgb(237,184,212)"
       id="stop15" />
    <stop
       offset="98.69565217391305%"
       stop-opacity="1"
       style="stop-color:rgb(162,110,245)"
       id="stop17" />
  </linearGradient>
  <path
     d="m 8.7687895,17.085179 v 0 c 0.4696,0.0396 0.8196,0.454 0.7812,0.9248 v 0 c -0.0388,0.4704 -0.4532,0.8204 -0.9248,0.7808 v 0 c -2.364,-0.1968 -4.5704,-1.282 -6.1716,-3.0376 -1.59720004,-1.7556 -2.47480004,-4.0524 -2.45320004235,-6.4267996 0.0224000024,-2.494 1.03680004235,-4.8804 2.81520004235,-6.6312 1.7824,-1.74680004 4.1872,-2.71720004 6.6812,-2.69480003958 C 11.990789,0.02277936 14.377189,1.0371794 16.127989,2.8155794 c 1.7464,1.7824 2.7172,4.1872 2.6948,6.6812 v 0 c -0.0044,0.472 -0.3912,0.8519996 -0.8632,0.8475996 v 0 c -0.4724,-0.004 -0.8524,-0.3907996 -0.848,-0.8631996 v 0 c 0.0184,-2.0404 -0.7764,-4.0072 -2.2052,-5.466 -1.4328,-1.4548 -3.3848,-2.2852 -5.4251995,-2.3036 -2.0404,-0.0184 -4.0072,0.7764 -5.466,2.2052 -1.4548,1.4328 -2.2852,3.3848 -2.3036,5.4252 -0.0176,1.9419996 0.6968,3.8223996 2.006,5.2587996 1.3088,1.4364 3.1148,2.3212 5.0512,2.4844 z m 7.4291995,-4.0312 v 0 c 0.2232,-0.416 0.7424,-0.5724 1.1584,-0.3492 v 0 c 0.4156,0.2236 0.572,0.7424 0.3488,1.1584 v 0 c -0.9528,1.7712 -2.4504,3.1952 -4.268,4.0556 v 0 c -0.4268,0.204 -0.938,0.0228 -1.1404,-0.404 v 0 c -0.2028,-0.4268 -0.0208,-0.9388 0.406,-1.1428 v 0 c 1.4908,-0.7052 2.712,-1.8664 3.4952,-3.318 z M 6.6099895,6.9883794 c 0,1.148 0.456,2.248 1.268,3.0559996 0.812,0.812 1.912,1.268 3.0559995,1.268 0.772,0 1.524,-0.204 2.188,-0.596 -0.296,0.744 -0.808,1.384 -1.472,1.836 -0.664,0.452 -1.448,0.692 -2.2479995,0.692 v 0 0 c -1.06,0 -2.08,-0.424 -2.828,-1.172 -0.752,-0.752 -1.172,-1.768 -1.172,-2.8279996 0,-1.104 0.456,-2.16 1.26,-2.916 -0.036,0.22 -0.052,0.44 -0.052,0.66 z m 1.592,-1.824 c -0.392,0.524 -0.392,1.164 -0.392,1.82 0,0.004 0,0.004 0,0.004 v 0 0 c 0,0.828 0.332,1.624 0.916,2.208 0.588,0.588 1.3799995,0.9159996 2.2079995,0.9159996 1.028,0 1.992,-0.5119996 2.568,-1.3639996 0.144,-0.216 0.416,-0.316 0.668,-0.24 0.252,0.076 0.424,0.304 0.428,0.564 l 0.004,0.16 c 0,0.004 0,0.008 0,0.012 0,1.3759996 -0.548,2.6999996 -1.524,3.6759996 -0.972,0.976 -2.296,1.524 -3.6759995,1.524 v 0 0 c -1.38,0 -2.704,-0.548 -3.676,-1.524 -0.976,-0.976 -1.524,-2.3 -1.524,-3.6759996 0,-1.484 0.632,-2.896 1.74,-3.884 1.104,-0.984 2.656,-0.72 2.26,-0.196 z"
     fill-rule="evenodd"
     fill="url(#_lgradient_38)"
     id="path20"
     style="fill:url(#_lgradient_38);stroke-width:0.4" />
</svg>
