<?xml version="1.0" encoding="UTF-8" standalone="no"?>
<svg
   viewBox="0 0 19.200001 19.200001"
   version="1.1"
   id="svg38"
   sodipodi:docname="logout_suspend.svg"
   width="19.200001"
   height="19.200001"
   inkscape:version="1.2.2 (b0a8486541, 2022-12-01)"
   xmlns:inkscape="http://www.inkscape.org/namespaces/inkscape"
   xmlns:sodipodi="http://sodipodi.sourceforge.net/DTD/sodipodi-0.dtd"
   xmlns="http://www.w3.org/2000/svg"
   xmlns:svg="http://www.w3.org/2000/svg">
  <sodipodi:namedview
     id="namedview40"
     pagecolor="#ffffff"
     bordercolor="#000000"
     borderopacity="0.25"
     inkscape:showpageshadow="2"
     inkscape:pageopacity="0.0"
     inkscape:pagecheckerboard="0"
     inkscape:deskcolor="#d1d1d1"
     showgrid="false"
     inkscape:zoom="25.75"
     inkscape:cx="9.6116505"
     inkscape:cy="9.592233"
     inkscape:window-width="1423"
     inkscape:window-height="1028"
     inkscape:window-x="0"
     inkscape:window-y="22"
     inkscape:window-maximized="0"
     inkscape:current-layer="svg38" />
  <defs
     id="defs3051">
    <style
       type="text/css"
       id="current-color-scheme">
      .ColorScheme-Text {
        color:#4d4d4d;
      }
      </style>
  </defs>
  <path
     style="fill:#666666;fill-opacity:1;stroke:none;stroke-width:0.8"
     d="M 9.6,0 C 4.298066,0 0,4.298064 0,9.6 h 0.8 17.6 0.8 C 19.2,4.298064 14.901934,0 9.6,0 Z m 0,0.8 c 4.590094,0 8.354723,3.515272 8.759375,8 H 0.8406248 C 1.2452768,4.315272 5.009906,0.8 9.6,0.8 Z M 0.0406248,10.4 C 0.448204,15.326568 4.568226,19.2 9.6,19.2 c 5.031774,0 9.151796,-3.873432 9.559375,-8.8 h -0.8 -17.5187502 z m 0.9109376,0.8 H 18.248438 C 17.495124,15.295072 13.912919,18.4 9.6,18.4 5.287081,18.4 1.704876,15.295072 0.9515624,11.2 Z"
     class="ColorScheme-Text"
     id="path36" />
</svg>
