<?xml version="1.0" encoding="UTF-8" standalone="no"?>
<svg
   viewBox="0 0 19.200001 19.200001"
   version="1.1"
   id="svg14"
   sodipodi:docname="logout_password.svg"
   inkscape:version="1.2.2 (b0a8486541, 2022-12-01)"
   width="19.200001"
   height="19.200001"
   xmlns:inkscape="http://www.inkscape.org/namespaces/inkscape"
   xmlns:sodipodi="http://sodipodi.sourceforge.net/DTD/sodipodi-0.dtd"
   xmlns="http://www.w3.org/2000/svg"
   xmlns:svg="http://www.w3.org/2000/svg">
  <sodipodi:namedview
     id="namedview16"
     pagecolor="#ffffff"
     bordercolor="#000000"
     borderopacity="0.25"
     inkscape:showpageshadow="2"
     inkscape:pageopacity="0.0"
     inkscape:pagecheckerboard="0"
     inkscape:deskcolor="#d1d1d1"
     showgrid="false"
     inkscape:zoom="25.75"
     inkscape:cx="7.4563107"
     inkscape:cy="8"
     inkscape:window-width="1920"
     inkscape:window-height="1032"
     inkscape:window-x="0"
     inkscape:window-y="22"
     inkscape:window-maximized="1"
     inkscape:current-layer="svg14" />
  <defs
     id="defs3051">
    <style
       type="text/css"
       id="current-color-scheme">
      .ColorScheme-Text {
        color:#4d4d4d;
      }
      </style>
  </defs>
  <path
     style="fill:currentColor;fill-opacity:1;stroke:none;stroke-width:0.8"
     d="M 9.6,0 C 4.298066,0 0,4.298066 0,9.6 c 0,5.301934 4.298066,9.6 9.6,9.6 5.301934,0 9.6,-4.298066 9.6,-9.6 C 19.2,4.298066 14.901934,0 9.6,0 Z m 0,0.8 c 4.860106,0 8.8,3.939894 8.8,8.8 0,4.860106 -3.939894,8.8 -8.8,8.8 -4.860106,0 -8.8,-3.939894 -8.8,-8.8 0,-4.860106 3.939894,-8.8 8.8,-8.8 z m 0,2.4 C 7.8272,3.2 6.4,4.6272 6.4,6.4 V 9.6 H 4.8 v 0.8 5.6 h 0.8 8 0.8 V 9.6 H 13.6 12.8 V 6.4 C 12.8,4.6272 11.3728,3.2 9.6,3.2 Z M 9.6,4 C 10.9296,4 12,5.2488 12,6.8 V 9.6 H 7.2 V 6.8 C 7.2,5.2488 8.2704,4 9.6,4 Z m -4,6.4 h 8 v 4.8 h -8 z"
     class="ColorScheme-Text"
     id="path12" />
</svg>
