<?xml version="1.0" encoding="UTF-8" standalone="no"?>
<svg
   viewBox="0 0 24 24"
   version="1.1"
   id="svg4"
   sodipodi:docname="logout_exit.svg"
   inkscape:version="1.2.2 (b0a8486541, 2022-12-01)"
   xmlns:inkscape="http://www.inkscape.org/namespaces/inkscape"
   xmlns:sodipodi="http://sodipodi.sourceforge.net/DTD/sodipodi-0.dtd"
   xmlns="http://www.w3.org/2000/svg"
   xmlns:svg="http://www.w3.org/2000/svg">
  <defs
     id="defs8" />
  <sodipodi:namedview
     id="namedview6"
     pagecolor="#ffffff"
     bordercolor="#000000"
     borderopacity="0.25"
     inkscape:showpageshadow="2"
     inkscape:pageopacity="0.0"
     inkscape:pagecheckerboard="0"
     inkscape:deskcolor="#d1d1d1"
     showgrid="false"
     inkscape:zoom="34.333333"
     inkscape:cx="12.029126"
     inkscape:cy="12"
     inkscape:window-width="1920"
     inkscape:window-height="1032"
     inkscape:window-x="0"
     inkscape:window-y="22"
     inkscape:window-maximized="1"
     inkscape:current-layer="svg4" />
  <path
     d="m 13.298,8.3615 c -0.8835,0 -1.6055,-0.7315 -1.6055,-1.615 A 1.6055,1.6055 0 0 1 13.298,5.141 c 0.893,0 1.615,0.722 1.615,1.6055 0,0.8835 -0.722,1.615 -1.615,1.615 m -2.888,11.172 -5.6335,-1.121 0.323,-1.615 3.9425,0.8075 1.2825,-6.517 -1.444,0.57 v 2.717 H 7.275 v -3.762 l 4.18,-1.7765 0.6365,-0.076 c 0.57,0 1.045,0.323 1.3585,0.8075 l 0.817,1.2825 C 14.913,12 16.1955,12.779 17.725,12.779 v 1.596 c -1.767,0 -3.382,-0.7885 -4.427,-1.995 l -0.475,2.413 1.6815,1.6055 V 22.45 H 12.899 v -4.845 l -1.691,-1.6055 -0.798,3.534 M 20.575,22.45 h -1.9 v -19 H 6.325 v 12.4545 l -1.9,-0.399 V 1.55 h 16.15 v 20.9 m -14.25,0 h -1.9 v -3.059 l 1.9,0.399 z"
     id="path2"
     style="fill:#cccccc;stroke-width:0.95" />
</svg>
