<?xml version="1.0" encoding="UTF-8" standalone="no"?>
<svg
   width="64"
   height="64"
   version="1.1"
   id="svg77"
   sodipodi:docname="light-dark.svg"
   inkscape:version="1.2.2 (b0a8486541, 2022-12-01)"
   xmlns:inkscape="http://www.inkscape.org/namespaces/inkscape"
   xmlns:sodipodi="http://sodipodi.sourceforge.net/DTD/sodipodi-0.dtd"
   xmlns="http://www.w3.org/2000/svg"
   xmlns:svg="http://www.w3.org/2000/svg">
  <defs
     id="defs81" />
  <sodipodi:namedview
     id="namedview79"
     pagecolor="#ffffff"
     bordercolor="#000000"
     borderopacity="0.25"
     inkscape:showpageshadow="2"
     inkscape:pageopacity="0.0"
     inkscape:pagecheckerboard="0"
     inkscape:deskcolor="#d1d1d1"
     showgrid="false"
     inkscape:zoom="12.875"
     inkscape:cx="32.038835"
     inkscape:cy="32"
     inkscape:window-width="1423"
     inkscape:window-height="1028"
     inkscape:window-x="0"
     inkscape:window-y="0"
     inkscape:window-maximized="0"
     inkscape:current-layer="svg77" />
  <g
     transform="matrix(1.0427536,0,0,1.0427536,-1.3681544,-281.14054)"
     id="g75">
    <circle
       cx="32"
       cy="300.29999"
       r="26.1"
       fill="#ffffff"
       stroke="#000000"
       stroke-opacity="0.137"
       stroke-width="1.074"
       id="circle63" />
    <g
       stroke-width="0.927"
       id="g73">
      <path
         fill="#20aa73"
         d="m 25.846,294.5 -6.844,4.56 v 7.036 L 36.4,294.5 19.002,282.896 v 7.036 z"
         class="st1"
         id="path65" />
      <path
         fill="#3989da"
         d="m 45.002,310.66 -6.845,-4.56 6.845,-4.568 v -7.036 L 27.604,306.1 45.002,317.695 Z"
         class="st2"
         id="path67" />
      <path
         fill="#20aa73"
         d="m 57.372,286.3 -4.877,3.246 a 23.2,23.2 0 0 1 2.705,10.753 23.2,23.2 0 0 1 -23.2,23.2 23.2,23.2 0 0 1 -17.85,-8.442 l -4.86,3.234 c 5.316,6.698 13.514,11.008 22.71,11.008 15.99,0 29,-13.009 29,-29 0,-5.077 -1.325,-9.844 -3.628,-13.999 z"
         id="path69" />
      <path
         fill="#3989da"
         d="m 32,271.3 c -15.991,0 -29,13.009 -29,29 a 28.8,28.8 0 0 0 3.146,13.118 l 4.9,-3.26 A 23.2,23.2 0 0 1 8.8,300.3 23.2,23.2 0 0 1 32,277.1 a 23.2,23.2 0 0 1 17.19,7.678 l 4.889,-3.252 C 48.756,275.276 40.834,271.3 32,271.3 Z"
         id="path71" />
    </g>
  </g>
</svg>
