<?xml version="1.0" encoding="UTF-8" standalone="no"?>
<svg
   width="64"
   height="64"
   version="1.1"
   id="svg48"
   sodipodi:docname="menu.svg"
   inkscape:version="1.2.2 (b0a8486541, 2022-12-01)"
   xmlns:inkscape="http://www.inkscape.org/namespaces/inkscape"
   xmlns:sodipodi="http://sodipodi.sourceforge.net/DTD/sodipodi-0.dtd"
   xmlns="http://www.w3.org/2000/svg"
   xmlns:svg="http://www.w3.org/2000/svg">
  <defs
     id="defs52" />
  <sodipodi:namedview
     id="namedview50"
     pagecolor="#ffffff"
     bordercolor="#000000"
     borderopacity="0.25"
     inkscape:showpageshadow="2"
     inkscape:pageopacity="0.0"
     inkscape:pagecheckerboard="0"
     inkscape:deskcolor="#d1d1d1"
     showgrid="false"
     inkscape:zoom="12.84375"
     inkscape:cx="32.116788"
     inkscape:cy="30.63747"
     inkscape:window-width="1423"
     inkscape:window-height="1025"
     inkscape:window-x="0"
     inkscape:window-y="0"
     inkscape:window-maximized="0"
     inkscape:current-layer="svg48" />
  <rect
     width="60.48"
     height="60.48"
     x="1.3695462"
     y="1.3695414"
     fill="#24b7fa"
     rx="30.24"
     ry="30.24"
     id="rect44"
     style="stroke-width:1.12" />
  <path
     fill="#f9f9f9"
     d="m 18.488517,13.432444 c -1.160534,0.295496 -0.192442,3.708987 0.261487,5.31311 -1.301561,1.675449 -0.680159,3.87202 -0.190973,5.598418 0.857914,3.03211 3.409622,5.020524 5.698372,4.43972 2.287282,-0.579346 4.113287,-1.154327 3.253906,-4.187895 -0.443648,-1.567731 -2.710363,-1.247487 -2.313727,-3.78468 0.56411,-3.591081 -1.563049,-3.639117 -4.878651,-2.797752 -0.475966,-1.687095 -1.33388,-4.707561 -1.830414,-4.580921 z m 14.25401,-3.6158252 c -0.496532,0.1266451 0.356973,3.1485632 0.83441,4.8327462 -3.314136,0.839908 -5.132795,1.889429 -2.747089,4.733763 1.686448,2.008792 -0.448052,2.805031 -0.0044,4.372762 0.857916,3.032111 2.742681,2.668201 5.031431,2.085942 2.287281,-0.579348 3.440472,-3.508109 2.588433,-6.541676 -0.487685,-1.727853 -1.110554,-3.924423 -3.12166,-4.758509 C 34.868255,12.937525 33.90457,9.5225774 32.744036,9.8166188 Z M 10.110634,29.009317 c -0.8285339,0.209615 0.198318,3.83563 0.72717,5.700313 0.665471,2.352325 1.646783,3.911324 3.171637,4.991413 1.983193,1.407609 6.209595,0.879211 7.315776,-1.099013 0.550887,-0.98984 1.04595,-2.738072 -0.07345,-3.426593 l -7.054288,-4.29998 c -0.813844,-0.494919 -1.802501,0.116454 -2.426839,0.842819 -0.381948,-1.356662 -0.827065,-2.925849 -1.655599,-2.716235 z M 48.23346,19.340913 c -0.828533,0.209613 -0.384886,1.780258 0,3.136919 -0.925489,-0.333342 -2.103651,-0.395935 -2.54583,0.419226 L 41.847583,29.9584 c -0.609648,1.122304 0.743329,2.401817 1.743739,2.998631 2.000821,1.190721 5.942232,-0.352266 6.91473,-2.51099 0.749206,-1.656526 0.775649,-3.470262 0.110186,-5.824041 -0.528852,-1.86614 -1.552765,-5.4907 -2.382769,-5.281087 z M 31.395426,32.019595 c -7.346625,1.863229 -5.802673,5.953595 -6.841278,9.301582 -0.816781,2.634721 -4.195553,1.906898 -3.308258,5.043815 1.113525,3.930246 5.312016,5.377159 12.383932,3.583802 l 5.301733,-1.345017 c 7.070447,-1.791901 9.942404,-5.035082 8.828878,-8.966783 -0.887296,-3.136917 -3.427249,-0.905412 -5.527964,-2.799208 -2.66776,-2.409096 -3.490419,-6.68142 -10.838511,-4.818191 z"
     id="path46"
     style="stroke-width:1.46232" />
</svg>
