<?xml version="1.0" encoding="UTF-8" standalone="no"?>
<svg
   viewBox="0 0 512 512"
   version="1.1"
   id="svg1015"
   sodipodi:docname="exit.svg"
   inkscape:version="1.2.2 (b0a8486541, 2022-12-01)"
   xmlns:inkscape="http://www.inkscape.org/namespaces/inkscape"
   xmlns:sodipodi="http://sodipodi.sourceforge.net/DTD/sodipodi-0.dtd"
   xmlns="http://www.w3.org/2000/svg"
   xmlns:svg="http://www.w3.org/2000/svg">
  <defs
     id="defs1019" />
  <sodipodi:namedview
     id="namedview1017"
     pagecolor="#ffffff"
     bordercolor="#000000"
     borderopacity="0.25"
     inkscape:showpageshadow="2"
     inkscape:pageopacity="0.0"
     inkscape:pagecheckerboard="0"
     inkscape:deskcolor="#d1d1d1"
     showgrid="false"
     inkscape:zoom="1.609375"
     inkscape:cx="256.93204"
     inkscape:cy="251.65049"
     inkscape:window-width="1423"
     inkscape:window-height="1026"
     inkscape:window-x="0"
     inkscape:window-y="0"
     inkscape:window-maximized="0"
     inkscape:current-layer="svg1015" />
  <!--!Font Awesome Free 6.5.1 by @fontawesome - https://fontawesome.com License - https://fontawesome.com/license/free Copyright 2024 Fonticons, Inc.-->
  <path
     d="M 497,278.12941 329,459.43543 c -15,16.18804 -41,4.8564 -41,-18.34646 V 337.48555 H 152 c -13.3,0 -24,-11.54746 -24,-25.90087 V 207.98126 c 0,-14.35341 10.7,-25.90087 24,-25.90087 H 288 V 78.476952 c 0,-23.094933 25.9,-34.534479 41,-18.346442 l 168,181.30601 c 9.3,10.14452 9.3,26.54839 0,36.69289 z M 192,454.03942 v -43.1681 c 0,-7.12275 -5.4,-12.95043 -12,-12.95043 H 96 c -17.7,0 -32,-15.4326 -32,-34.53449 V 156.17953 c 0,-19.10189 14.3,-34.53448 32,-34.53448 h 84 c 6.6,0 12,-5.82769 12,-12.95043 V 65.526523 c 0,-7.122737 -5.4,-12.95043 -12,-12.95043 H 96 c -53,0 -96,46.405706 -96,103.603437 V 363.3864 c 0,57.19774 43,103.60345 96,103.60345 h 84 c 6.6,0 12,-5.8277 12,-12.95043 z"
     id="path1013"
     style="stroke-width:1.03884;fill:#cccccc" />
</svg>
