<?xml version="1.0" encoding="UTF-8" standalone="no"?>
<svg
   viewBox="0 0 448 512"
   version="1.1"
   id="svg975"
   sodipodi:docname="hotcorners.svg"
   inkscape:version="1.2.2 (b0a8486541, 2022-12-01)"
   xmlns:inkscape="http://www.inkscape.org/namespaces/inkscape"
   xmlns:sodipodi="http://sodipodi.sourceforge.net/DTD/sodipodi-0.dtd"
   xmlns="http://www.w3.org/2000/svg"
   xmlns:svg="http://www.w3.org/2000/svg">
  <defs
     id="defs979" />
  <sodipodi:namedview
     id="namedview977"
     pagecolor="#ffffff"
     bordercolor="#000000"
     borderopacity="0.25"
     inkscape:showpageshadow="2"
     inkscape:pageopacity="0.0"
     inkscape:pagecheckerboard="0"
     inkscape:deskcolor="#d1d1d1"
     showgrid="false"
     inkscape:zoom="1.609375"
     inkscape:cx="225.5534"
     inkscape:cy="258.17476"
     inkscape:window-width="1423"
     inkscape:window-height="1025"
     inkscape:window-x="0"
     inkscape:window-y="0"
     inkscape:window-maximized="0"
     inkscape:current-layer="svg975" />
  <!--!Font Awesome Free 6.5.1 by @fontawesome - https://fontawesome.com License - https://fontawesome.com/license/free Copyright 2024 Fonticons, Inc.-->
  <path
     d="M 427.07784,345.80181 V 456.31796 A 21.580604,23.583358 0 0 1 405.40694,480 H 304.2761 c -19.32323,0 -28.98483,-25.55686 -15.35024,-40.45681 l 32.68694,-35.7204 -96.79668,-105.77974 -96.79668,105.87842 32.68694,35.62172 C 174.34099,454.44314 164.67939,480 145.35616,480 H 44.2253 A 21.580604,23.583358 0 0 1 22.554401,456.31796 V 345.80181 c 0,-21.11648 23.386512,-31.67472 37.021119,-16.77477 L 92.262458,364.74744 189.14943,258.96769 92.262458,153.08926 59.57552,188.90834 c -13.634607,14.89995 -37.021119,4.3417 -37.021119,-16.77478 V 61.617407 A 21.580604,23.583358 0 0 1 44.2253,37.935373 h 101.13086 c 19.32323,0 28.98483,25.556862 15.35022,40.456808 L 128.01944,114.11258 224.81612,219.89234 321.6128,114.01391 288.92586,78.392181 C 275.29127,63.492235 284.95287,37.935373 304.2761,37.935373 h 101.13084 a 21.580604,23.583358 0 0 1 21.6709,23.682034 V 172.13356 c 0,21.11648 -23.3865,31.67473 -37.02112,16.77478 l -32.68693,-35.72041 -96.88698,105.77976 96.88698,105.87843 32.68693,-35.72041 c 13.63462,-14.99862 37.02112,-4.44038 37.02112,16.6761 z"
     id="path973"
     style="stroke-width:0.943924;fill:#d1d1d1;fill-opacity:1" />
</svg>
