<?xml version="1.0" encoding="UTF-8" standalone="no"?>
<svg
   viewBox="0 0 512 512"
   version="1.1"
   id="svg4"
   sodipodi:docname="theme-options.svg"
   inkscape:version="1.2.2 (b0a8486541, 2022-12-01)"
   xmlns:inkscape="http://www.inkscape.org/namespaces/inkscape"
   xmlns:sodipodi="http://sodipodi.sourceforge.net/DTD/sodipodi-0.dtd"
   xmlns="http://www.w3.org/2000/svg"
   xmlns:svg="http://www.w3.org/2000/svg">
  <defs
     id="defs8" />
  <sodipodi:namedview
     id="namedview6"
     pagecolor="#ffffff"
     bordercolor="#000000"
     borderopacity="0.25"
     inkscape:showpageshadow="2"
     inkscape:pageopacity="0.0"
     inkscape:pagecheckerboard="0"
     inkscape:deskcolor="#d1d1d1"
     showgrid="false"
     inkscape:zoom="1.625"
     inkscape:cx="150.46154"
     inkscape:cy="254.76923"
     inkscape:window-width="1294"
     inkscape:window-height="966"
     inkscape:window-x="2"
     inkscape:window-y="15"
     inkscape:window-maximized="0"
     inkscape:current-layer="svg4" />
  <!--!Font Awesome Free 6.5.2 by @fontawesome - https://fontawesome.com License - https://fontawesome.com/license/free Copyright 2024 Fonticons, Inc.-->
  <path
     d="m 438.4,80 c 8.36,0 15.2,7.2 15.2,16 v 319.8 l -4.75,-6.5 -129.2,-176 c -4.275,-5.9 -11.02,-9.3 -18.05,-9.3 -7.03,0 -13.68,3.4 -18.05,9.3 L 204.7,340.7 175.725,298 c -4.275,-6.3 -11.115,-10 -18.525,-10 -7.41,0 -14.25,3.7 -18.525,10.1 l -76,112 -4.275,6.2 V 416 96 c 0,-8.8 6.84,-16 15.2,-16 z M 73.6,32 C 40.065,32 12.8,60.7 12.8,96 v 320 c 0,35.3 27.265,64 60.8,64 h 364.8 c 33.535,0 60.8,-28.7 60.8,-64 V 96 c 0,-35.3 -27.265,-64 -60.8,-64 z m 76,192 a 45.6,48 0 1 0 0,-96 45.6,48 0 1 0 0,96 z"
     id="path2"
     style="fill:#d1d1d1;stroke-width:0.974679;fill-opacity:1" />
</svg>
