<?xml version="1.0" encoding="UTF-8" standalone="no"?>
<svg
   viewBox="0 0 448 512"
   version="1.1"
   id="svg1087"
   sodipodi:docname="upgrade.svg"
   inkscape:version="1.2.2 (b0a8486541, 2022-12-01)"
   xmlns:inkscape="http://www.inkscape.org/namespaces/inkscape"
   xmlns:sodipodi="http://sodipodi.sourceforge.net/DTD/sodipodi-0.dtd"
   xmlns="http://www.w3.org/2000/svg"
   xmlns:svg="http://www.w3.org/2000/svg">
  <defs
     id="defs1091" />
  <sodipodi:namedview
     id="namedview1089"
     pagecolor="#ffffff"
     bordercolor="#000000"
     borderopacity="0.25"
     inkscape:showpageshadow="2"
     inkscape:pageopacity="0.0"
     inkscape:pagecheckerboard="0"
     inkscape:deskcolor="#d1d1d1"
     showgrid="false"
     inkscape:zoom="1.5800781"
     inkscape:cx="224.98888"
     inkscape:cy="256.31644"
     inkscape:window-width="1423"
     inkscape:window-height="1026"
     inkscape:window-x="0"
     inkscape:window-y="0"
     inkscape:window-maximized="0"
     inkscape:current-layer="svg1087" />
  <!--!Font Awesome Free 6.5.1 by @fontawesome - https://fontawesome.com License - https://fontawesome.com/license/free Copyright 2024 Fonticons, Inc.-->
  <path
     d="M 400,32 H 48 C 21.5,32 0,53.761113 0,80.582949 V 436.85791 c 0,26.82184 21.5,48.58295 48,48.58295 h 352 c 26.5,0 48,-21.76111 48,-48.58295 V 80.582949 C 448,53.761113 426.5,32 400,32 Z m -32,255.06048 c 0,6.68016 -5.4,12.14574 -12,12.14574 h -92 v 93.11732 c 0,6.68016 -5.4,12.14574 -12,12.14574 h -56 c -6.6,0 -12,-5.46558 -12,-12.14574 V 299.20622 H 92 c -6.6,0 -12,-5.46558 -12,-12.14574 v -56.6801 c 0,-6.68016 5.4,-12.14574 12,-12.14574 h 92 v -93.11732 c 0,-6.68016 5.4,-12.14574 12,-12.14574 h 56 c 6.6,0 12,5.46558 12,12.14574 v 93.11732 h 92 c 6.6,0 12,5.46558 12,12.14574 z"
     id="path1085"
     style="stroke-width:1.00605;fill:#cccccc" />
</svg>
