<?xml version="1.0" encoding="UTF-8" standalone="no"?>
<svg
   width="21.6"
   height="22.139999"
   version="1"
   id="svg12"
   sodipodi:docname="logout_exit.svg"
   inkscape:version="1.2.2 (b0a8486541, 2022-12-01)"
   xmlns:inkscape="http://www.inkscape.org/namespaces/inkscape"
   xmlns:sodipodi="http://sodipodi.sourceforge.net/DTD/sodipodi-0.dtd"
   xmlns="http://www.w3.org/2000/svg"
   xmlns:svg="http://www.w3.org/2000/svg">
  <defs
     id="defs16" />
  <sodipodi:namedview
     id="namedview14"
     pagecolor="#ffffff"
     bordercolor="#000000"
     borderopacity="0.25"
     inkscape:showpageshadow="2"
     inkscape:pageopacity="0.0"
     inkscape:pagecheckerboard="0"
     inkscape:deskcolor="#d1d1d1"
     showgrid="false"
     inkscape:zoom="17.166667"
     inkscape:cx="0"
     inkscape:cy="10.601942"
     inkscape:window-width="1920"
     inkscape:window-height="1032"
     inkscape:window-x="0"
     inkscape:window-y="22"
     inkscape:window-maximized="1"
     inkscape:current-layer="svg12" />
  <circle
     fill="#009587"
     cx="10.8"
     cy="10.800001"
     r="10.8"
     id="circle2"
     style="stroke-width:0.54" />
  <path
     fill="#ffffff"
     opacity="0.2"
     d="M 10.8,0 A 10.8,10.8 0 0 0 1.9073486e-7,10.8 10.8,10.8 0 0 0 0.01161019,11.11428 10.8,10.8 0 0 1 10.79973,0.54 10.8,10.8 0 0 1 21.58839,11.02572 10.8,10.8 0 0 0 21.59973,10.8 10.8,10.8 0 0 0 10.79973,0 Z"
     id="path4"
     style="stroke-width:0.54" />
  <path
     opacity="0.2"
     d="M 21.58866,11.02572 A 10.8,10.8 0 0 1 10.8,21.6 10.8,10.8 0 0 1 0.01188019,11.11428 10.8,10.8 0 0 0 1.9073486e-7,11.34 10.8,10.8 0 0 0 10.8,22.14 10.8,10.8 0 0 0 21.6,11.34 10.8,10.8 0 0 0 21.58866,11.02572 Z"
     id="path6"
     style="stroke-width:0.54" />
  <path
     style="opacity:0.2;stroke-width:0.54"
     d="m 10.8,4.32 c -1.4914798,0 -2.6999998,1.20906 -2.6999998,2.7 0,1.49094 1.20852,2.7 2.6999998,2.7 1.49148,0 2.7,-1.20906 2.7,-2.7 0,-1.49094 -1.20852,-2.7 -2.7,-2.7 z m 0,7.02 C 5.4005402,11.3432 5.4000002,14.796 5.4000002,14.796 V 16.2 c 0,0 0.9969165,2.16 5.3999998,2.16 4.403083,0 5.4,-2.16 5.4,-2.16 v -1.404 c 0,0 0,-3.45816 -5.39892,-3.456 z"
     id="path8" />
  <path
     style="fill:#ffffff;stroke-width:0.54"
     d="m 10.8,3.78 c -1.4914798,0 -2.6999998,1.20906 -2.6999998,2.7 0,1.49094 1.20852,2.7 2.6999998,2.7 1.49148,0 2.7,-1.20906 2.7,-2.7 0,-1.49094 -1.20852,-2.7 -2.7,-2.7 z m 0,7.02 c -5.3994598,0.0032 -5.3999998,3.456 -5.3999998,3.456 v 1.404 c 0,0 0.9969165,2.16 5.3999998,2.16 4.403083,0 5.4,-2.16 5.4,-2.16 v -1.404 c 0,0 0,-3.45816 -5.39892,-3.456 z"
     id="path10" />
</svg>
