<?xml version="1.0" encoding="UTF-8" standalone="no"?>
<svg
   width="21.6"
   height="22.139999"
   version="1"
   id="svg108"
   sodipodi:docname="logout_system.svg"
   inkscape:version="1.2.2 (b0a8486541, 2022-12-01)"
   xmlns:inkscape="http://www.inkscape.org/namespaces/inkscape"
   xmlns:sodipodi="http://sodipodi.sourceforge.net/DTD/sodipodi-0.dtd"
   xmlns="http://www.w3.org/2000/svg"
   xmlns:svg="http://www.w3.org/2000/svg">
  <defs
     id="defs112" />
  <sodipodi:namedview
     id="namedview110"
     pagecolor="#ffffff"
     bordercolor="#000000"
     borderopacity="0.25"
     inkscape:showpageshadow="2"
     inkscape:pageopacity="0.0"
     inkscape:pagecheckerboard="0"
     inkscape:deskcolor="#d1d1d1"
     showgrid="false"
     inkscape:zoom="17.166667"
     inkscape:cx="0"
     inkscape:cy="10.601942"
     inkscape:window-width="1920"
     inkscape:window-height="1032"
     inkscape:window-x="0"
     inkscape:window-y="22"
     inkscape:window-maximized="1"
     inkscape:current-layer="svg108" />
  <circle
     style="opacity:0.2;stroke-width:0.54"
     cx="10.8"
     cy="11.34"
     r="10.8"
     id="circle98" />
  <circle
     style="fill:#4caf50;stroke-width:0.54"
     cx="10.8"
     cy="10.800001"
     r="10.8"
     id="circle100" />
  <path
     style="opacity:0.2;fill:#ffffff;stroke-width:0.54"
     d="M 10.8,0 A 10.8,10.8 0 0 0 1.9073486e-7,10.8 10.8,10.8 0 0 0 0.01161019,11.11428 10.8,10.8 0 0 1 10.79973,0.54 10.8,10.8 0 0 1 21.58839,11.02572 10.8,10.8 0 0 0 21.59973,10.8 10.8,10.8 0 0 0 10.79973,0 Z"
     id="path102" />
  <path
     style="opacity:0.2;stroke-width:0.54"
     d="m 10.603828,3.7829169 c -0.225756,0.00621 -0.450863,0.022347 -0.6749998,0.048519 C 8.1357338,4.0408002 6.4176005,4.8843594 5.1426569,6.3205524 2.5927688,9.192937 2.6075675,13.54272 5.1774599,16.397252 7.7473595,19.251784 12.075615,19.72777 15.204373,17.49837 A 1.0820146,1.0808891 0 1 0 13.94824,15.738059 C 11.701013,17.339323 8.631686,17.003618 6.785858,14.953354 4.94003,12.903089 4.9290905,9.818046 6.76055,7.754958 8.5920032,5.6918709 11.659296,5.3330202 13.917659,6.9185727 A 1.0818507,1.0807253 0 1 0 15.16219,5.1508782 C 13.786573,4.1850837 12.184126,3.7392453 10.603828,3.7829169 Z M 15.66,7.5598344 v 2.7000576 h -3.78 a 1.08,1.0800231 0 0 0 -1.08,1.080023 1.08,1.0800231 0 0 0 1.08,1.080024 h 3.78 v 2.700057 l 4.86,-3.780081 z"
     id="path104" />
  <path
     style="fill:#ffffff;stroke-width:0.54"
     d="m 10.603828,3.2428395 c -0.225756,0.00621 -0.450863,0.022347 -0.6749998,0.048519 C 8.1357338,3.5007237 6.4176005,4.344282 5.1426569,5.780475 c -2.5498881,2.8723842 -2.5350894,7.222168 0.034803,10.0767 2.5698996,2.854531 6.8981551,3.330517 10.0269131,1.101117 A 1.0820146,1.0808891 0 1 0 13.94824,15.197981 C 11.701013,16.799245 8.631686,16.463541 6.785858,14.413277 4.94003,12.363012 4.9290905,9.277969 6.76055,7.2148806 8.5920032,5.1517935 11.659296,4.7929428 13.917659,6.3784953 A 1.0818507,1.0807253 0 1 0 15.16219,4.6108008 C 13.786573,3.6450063 12.184126,3.1991679 10.603828,3.2428395 Z M 15.66,7.019757 v 2.700058 h -3.78 a 1.08,1.0800231 0 0 0 -1.08,1.080023 1.08,1.0800231 0 0 0 1.08,1.080023 h 3.78 v 2.700058 l 4.86,-3.780081 z"
     id="path106" />
</svg>
