<?xml version="1.0" encoding="UTF-8" standalone="no"?>
<svg
   width="21.6"
   height="22.139999"
   version="1"
   id="svg76"
   sodipodi:docname="logout_suspend.svg"
   inkscape:version="1.2.2 (b0a8486541, 2022-12-01)"
   xmlns:inkscape="http://www.inkscape.org/namespaces/inkscape"
   xmlns:sodipodi="http://sodipodi.sourceforge.net/DTD/sodipodi-0.dtd"
   xmlns="http://www.w3.org/2000/svg"
   xmlns:svg="http://www.w3.org/2000/svg">
  <defs
     id="defs80" />
  <sodipodi:namedview
     id="namedview78"
     pagecolor="#ffffff"
     bordercolor="#000000"
     borderopacity="0.25"
     inkscape:showpageshadow="2"
     inkscape:pageopacity="0.0"
     inkscape:pagecheckerboard="0"
     inkscape:deskcolor="#d1d1d1"
     showgrid="false"
     inkscape:zoom="17.166667"
     inkscape:cx="0"
     inkscape:cy="10.601942"
     inkscape:window-width="1920"
     inkscape:window-height="1032"
     inkscape:window-x="0"
     inkscape:window-y="22"
     inkscape:window-maximized="1"
     inkscape:current-layer="svg76" />
  <circle
     style="opacity:0.2;stroke-width:0.54"
     cx="10.8"
     cy="11.34"
     r="10.8"
     id="circle66" />
  <circle
     style="fill:#00bcd4;stroke-width:0.54"
     cx="10.8"
     cy="10.800001"
     r="10.8"
     id="circle68" />
  <path
     style="opacity:0.2;fill:#ffffff;stroke-width:0.54"
     d="M 10.8,0 A 10.8,10.8 0 0 0 1.9073486e-7,10.8 10.8,10.8 0 0 0 0.01161019,11.11428 10.8,10.8 0 0 1 10.79973,0.54 10.8,10.8 0 0 1 21.58839,11.02572 10.8,10.8 0 0 0 21.59973,10.8 10.8,10.8 0 0 0 10.79973,0 Z"
     id="path70" />
  <path
     style="opacity:0.2;stroke-width:0.54"
     d="M 10.8,3.78 A 7.56,7.56 0 0 0 3.2400002,11.34 7.56,7.56 0 0 0 10.8,18.9 7.56,7.56 0 0 0 18.36,11.34 7.56,7.56 0 0 0 10.8,3.78 Z m 0,2.16 a 5.4,5.4 0 0 1 5.4,5.4 5.4,5.4 0 0 1 -5.4,5.4 A 5.4,5.4 0 0 1 5.4000002,11.34 5.4,5.4 0 0 1 10.8,5.94 Z m -2.1494527,4.32 a 1.0750044,1.080108 0 1 0 0,2.16 h 4.2989057 a 1.0750044,1.080108 0 1 0 0,-2.16 z"
     id="path72" />
  <path
     style="fill:#ffffff;stroke-width:0.54"
     d="M 10.8,3.24 A 7.56,7.56 0 0 0 3.2400002,10.8 7.56,7.56 0 0 0 10.8,18.36 7.56,7.56 0 0 0 18.36,10.8 7.56,7.56 0 0 0 10.8,3.24 Z m 0,2.16 a 5.4,5.4 0 0 1 5.4,5.4 5.4,5.4 0 0 1 -5.4,5.4 A 5.4,5.4 0 0 1 5.4000002,10.8 5.4,5.4 0 0 1 10.8,5.4 Z M 8.6505473,9.72 a 1.0750044,1.080108 0 1 0 0,2.16 h 4.2989057 a 1.0750044,1.080108 0 1 0 0,-2.16 z"
     id="path74" />
</svg>
