<?xml version="1.0" encoding="UTF-8" standalone="no"?>
<svg
   width="21.6"
   height="22.139999"
   version="1"
   id="svg60"
   sodipodi:docname="logout_shutdown.svg"
   inkscape:version="1.2.2 (b0a8486541, 2022-12-01)"
   xmlns:inkscape="http://www.inkscape.org/namespaces/inkscape"
   xmlns:sodipodi="http://sodipodi.sourceforge.net/DTD/sodipodi-0.dtd"
   xmlns="http://www.w3.org/2000/svg"
   xmlns:svg="http://www.w3.org/2000/svg">
  <defs
     id="defs64" />
  <sodipodi:namedview
     id="namedview62"
     pagecolor="#ffffff"
     bordercolor="#000000"
     borderopacity="0.25"
     inkscape:showpageshadow="2"
     inkscape:pageopacity="0.0"
     inkscape:pagecheckerboard="0"
     inkscape:deskcolor="#d1d1d1"
     showgrid="false"
     inkscape:zoom="17.166667"
     inkscape:cx="0"
     inkscape:cy="10.601942"
     inkscape:window-width="1920"
     inkscape:window-height="1032"
     inkscape:window-x="0"
     inkscape:window-y="22"
     inkscape:window-maximized="1"
     inkscape:current-layer="svg60" />
  <circle
     style="opacity:0.2;stroke-width:0.54"
     cx="10.8"
     cy="11.34"
     r="10.8"
     id="circle50" />
  <circle
     style="fill:#f44336;stroke-width:0.54"
     cx="10.8"
     cy="10.800001"
     r="10.8"
     id="circle52" />
  <path
     style="opacity:0.2;fill:#ffffff;stroke-width:0.54"
     d="M 10.8,0 A 10.8,10.8 0 0 0 1.9073486e-7,10.8 10.8,10.8 0 0 0 0.01161019,11.11428 10.8,10.8 0 0 1 10.79973,0.54 10.8,10.8 0 0 1 21.58839,11.02572 10.8,10.8 0 0 0 21.59973,10.8 10.8,10.8 0 0 0 10.79973,0 Z"
     id="path54" />
  <path
     style="opacity:0.2;stroke-width:0.54"
     d="M 10.78418,2.6998956 A 1.080108,1.0763379 0 0 0 9.7200002,3.7904427 v 6.4578523 a 1.080108,1.0763379 0 1 0 2.1599998,0 V 3.7904427 A 1.080108,1.0763379 0 0 0 10.78418,2.6998956 Z M 7.1592185,4.8609504 A 1.0801737,1.0811039 0 0 0 6.5833598,5.0518494 C 3.832139,6.9021846 2.6046884,10.343999 3.5627348,13.519935 c 0.9580464,3.175935 3.8825577,5.36259 7.1971872,5.379961 3.314629,0.01737 6.262917,-2.138303 7.25414,-5.304024 0.991224,-3.165721 -0.200322,-6.6196021 -2.93203,-8.4986716 a 1.0801737,1.0811039 0 1 0 -1.223439,1.7803125 c 1.957632,1.3466025 2.804952,3.8031801 2.09461,6.0718361 -0.710342,2.268656 -2.806311,3.800886 -5.181679,3.788438 C 8.3961542,16.72534 6.317543,15.171537 5.6309762,12.89556 4.9444103,10.619582 5.8161998,8.1718812 7.7878127,6.8458725 A 1.0801737,1.0811039 0 0 0 7.1592185,4.8609504 Z"
     id="path56" />
  <path
     style="fill:#ffffff;stroke-width:0.54"
     d="M 10.78418,2.16 A 1.080108,1.0763379 0 0 0 9.7200002,3.2505471 V 9.708399 a 1.080108,1.0763379 0 1 0 2.1599998,0 V 3.2505471 A 1.080108,1.0763379 0 0 0 10.78418,2.16 Z M 7.1592185,4.3210548 A 1.0801737,1.0811039 0 0 0 6.5833598,4.5119529 C 3.832139,6.362289 2.6046884,9.804103 3.5627348,12.980038 4.5207812,16.155975 7.4452925,18.342629 10.759922,18.36 c 3.314629,0.01737 6.262917,-2.138304 7.25414,-5.304024 0.991224,-3.16572 -0.200322,-6.6196017 -2.93203,-8.4986712 a 1.0801737,1.0811039 0 1 0 -1.223439,1.7803125 c 1.957632,1.3466025 2.804952,3.8031797 2.09461,6.0718357 -0.710342,2.268657 -2.806311,3.800886 -5.181679,3.788437 C 8.3961542,16.185443 6.317543,14.631641 5.6309762,12.355663 4.9444103,10.079687 5.8161998,7.6319856 7.7878127,6.305976 A 1.0801737,1.0811039 0 0 0 7.1592185,4.3210548 Z"
     id="path58" />
</svg>
