<?xml version="1.0" encoding="UTF-8" standalone="no"?>
<svg
   width="21.6"
   height="22.140001"
   version="1"
   id="svg28"
   sodipodi:docname="logout_password.svg"
   inkscape:version="1.2.2 (b0a8486541, 2022-12-01)"
   xmlns:inkscape="http://www.inkscape.org/namespaces/inkscape"
   xmlns:sodipodi="http://sodipodi.sourceforge.net/DTD/sodipodi-0.dtd"
   xmlns="http://www.w3.org/2000/svg"
   xmlns:svg="http://www.w3.org/2000/svg">
  <defs
     id="defs32" />
  <sodipodi:namedview
     id="namedview30"
     pagecolor="#ffffff"
     bordercolor="#000000"
     borderopacity="0.25"
     inkscape:showpageshadow="2"
     inkscape:pageopacity="0.0"
     inkscape:pagecheckerboard="0"
     inkscape:deskcolor="#d1d1d1"
     showgrid="false"
     inkscape:zoom="17.166667"
     inkscape:cx="0"
     inkscape:cy="10.601942"
     inkscape:window-width="1920"
     inkscape:window-height="1032"
     inkscape:window-x="0"
     inkscape:window-y="22"
     inkscape:window-maximized="1"
     inkscape:current-layer="svg28" />
  <rect
     style="opacity:0.2;stroke-width:0.54"
     width="21.6"
     height="21.6"
     x="4.7683717e-08"
     y="0.54000032"
     rx="6.48"
     ry="6.48"
     id="rect18" />
  <rect
     style="fill:#ff5722;stroke-width:0.54"
     width="21.6"
     height="21.6"
     x="4.7683717e-08"
     y="0"
     rx="6.48"
     ry="6.48"
     id="rect20" />
  <path
     style="opacity:0.2;fill:#ffffff;stroke-width:0.54"
     d="M 6.48,1.8092651e-7 C 2.89008,1.8092651e-7 0,2.8900802 0,6.4800002 v 0.54 C 0,3.4300802 2.89008,0.54000018 6.48,0.54000018 h 8.64 c 3.58992,0 6.48,2.89008002 6.48,6.48000002 v -0.54 C 21.6,2.8900802 18.70992,1.8092651e-7 15.12,1.8092651e-7 Z"
     id="path22" />
  <path
     style="opacity:0.2;stroke-width:0.54"
     d="m 10.8,3.7800002 c -2.39328,0 -4.32,1.92672 -4.32,4.32 V 10.26 H 5.4 c -0.59832,0 -1.08,0.48168 -1.08,1.08 v 6.48 c 0,0.59832 0.48168,1.08 1.08,1.08 h 10.8 c 0.59832,0 1.08,-0.48168 1.08,-1.08 v -6.48 c 0,-0.59832 -0.48168,-1.08 -1.08,-1.08 H 15.12 V 8.1000002 c 0,-2.39328 -1.92672,-4.32 -4.32,-4.32 z m 0,2.16 c 1.19664,0 2.16,0.96336 2.16,2.16 V 10.26 H 8.64 V 8.1000002 c 0,-1.19664 0.96336,-2.16 2.16,-2.16 z"
     id="path24" />
  <path
     style="fill:#ffffff;stroke-width:0.54"
     d="m 10.8,3.2400002 c -2.39328,0 -4.32,1.92672 -4.32,4.32 V 9.72 H 5.4 c -0.59832,0 -1.08,0.48168 -1.08,1.08 v 6.48 c 0,0.59832 0.48168,1.08 1.08,1.08 h 10.8 c 0.59832,0 1.08,-0.48168 1.08,-1.08 V 10.8 c 0,-0.59832 -0.48168,-1.08 -1.08,-1.08 H 15.12 V 7.5600002 c 0,-2.39328 -1.92672,-4.32 -4.32,-4.32 z m 0,2.16 c 1.19664,0 2.16,0.96336 2.16,2.16 V 9.72 H 8.64 V 7.5600002 c 0,-1.19664 0.96336,-2.16 2.16,-2.16 z"
     id="path26" />
</svg>
