<?xml version="1.0" encoding="UTF-8" standalone="no"?>
<svg
   viewBox="0 0 20.48 20.48"
   version="1.1"
   id="svg52"
   sodipodi:docname="logout_suspend2.svg"
   width="20.48"
   height="20.48"
   inkscape:version="1.2.2 (b0a8486541, 2022-12-01)"
   xmlns:inkscape="http://www.inkscape.org/namespaces/inkscape"
   xmlns:sodipodi="http://sodipodi.sourceforge.net/DTD/sodipodi-0.dtd"
   xmlns="http://www.w3.org/2000/svg"
   xmlns:svg="http://www.w3.org/2000/svg">
  <defs
     id="defs56" />
  <sodipodi:namedview
     id="namedview54"
     pagecolor="#ffffff"
     bordercolor="#000000"
     borderopacity="0.25"
     inkscape:showpageshadow="2"
     inkscape:pageopacity="0.0"
     inkscape:pagecheckerboard="0"
     inkscape:deskcolor="#d1d1d1"
     showgrid="false"
     inkscape:zoom="1.609375"
     inkscape:cx="-237.35922"
     inkscape:cy="-154.09709"
     inkscape:window-width="1920"
     inkscape:window-height="1032"
     inkscape:window-x="0"
     inkscape:window-y="22"
     inkscape:window-maximized="1"
     inkscape:current-layer="svg52" />
  <!--!Font Awesome Free 6.7.2 by @fontawesome - https://fontawesome.com License - https://fontawesome.com/license/free Copyright 2025 Fonticons, Inc.-->
  <path
     d="m 18.56,10.24 a 8.32,8.32 0 1 1 -16.64,0 8.32,8.32 0 1 1 16.64,0 z M 0,10.24 a 10.24,10.24 0 1 0 20.48,0 10.24,10.24 0 1 0 -20.48,0 z M 9.28,4.8 v 5.44 c 0,0.32 0.16,0.62 0.428,0.8 l 3.84,2.56 c 0.44,0.296 1.036,0.176 1.332,-0.268 C 15.176,12.888 15.056,12.296 14.612,12 L 11.2,9.728 V 4.8 C 11.2,4.268 10.772,3.84 10.24,3.84 9.708,3.84 9.28,4.268 9.28,4.8 Z"
     id="path50"
     style="fill:#b3b3b3;stroke-width:0.04" />
</svg>
