<?xml version="1.0" encoding="UTF-8" standalone="no"?>
<svg
   viewBox="0 0 512 512"
   version="1.1"
   id="svg1629"
   sodipodi:docname="theme-options.svg"
   inkscape:version="1.2.2 (b0a8486541, 2022-12-01)"
   xmlns:inkscape="http://www.inkscape.org/namespaces/inkscape"
   xmlns:sodipodi="http://sodipodi.sourceforge.net/DTD/sodipodi-0.dtd"
   xmlns="http://www.w3.org/2000/svg"
   xmlns:svg="http://www.w3.org/2000/svg">
  <defs
     id="defs1633">
    <filter
       style="color-interpolation-filters:sRGB;"
       inkscape:label="Colorize"
       id="filter358"
       x="0"
       y="0"
       width="1"
       height="1">
      <feComposite
         in2="SourceGraphic"
         operator="arithmetic"
         k1="0"
         k2="1"
         result="composite1"
         id="feComposite344" />
      <feColorMatrix
         in="composite1"
         values="1"
         type="saturate"
         result="colormatrix1"
         id="feColorMatrix346" />
      <feFlood
         flood-opacity="1"
         flood-color="rgb(119,139,161)"
         result="flood1"
         id="feFlood348" />
      <feBlend
         in="flood1"
         in2="colormatrix1"
         mode="multiply"
         result="blend1"
         id="feBlend350" />
      <feBlend
         in2="blend1"
         mode="screen"
         result="blend2"
         id="feBlend352" />
      <feColorMatrix
         in="blend2"
         values="1"
         type="saturate"
         result="colormatrix2"
         id="feColorMatrix354" />
      <feComposite
         in="colormatrix2"
         in2="SourceGraphic"
         operator="in"
         k2="1"
         result="composite2"
         id="feComposite356" />
    </filter>
  </defs>
  <sodipodi:namedview
     id="namedview1631"
     pagecolor="#ffffff"
     bordercolor="#000000"
     borderopacity="0.25"
     inkscape:showpageshadow="2"
     inkscape:pageopacity="0.0"
     inkscape:pagecheckerboard="0"
     inkscape:deskcolor="#d1d1d1"
     showgrid="false"
     inkscape:zoom="1.6054688"
     inkscape:cx="256.9343"
     inkscape:cy="256.9343"
     inkscape:window-width="1423"
     inkscape:window-height="1023"
     inkscape:window-x="0"
     inkscape:window-y="0"
     inkscape:window-maximized="0"
     inkscape:current-layer="svg1629" />
  <!--!Font Awesome Free 6.5.1 by @fontawesome - https://fontawesome.com License - https://fontawesome.com/license/free Copyright 2024 Fonticons, Inc.-->
  <path
     d="M464 256H48a48 48 0 0 0 0 96h416a48 48 0 0 0 0-96zm16 128H32a16 16 0 0 0 -16 16v16a64 64 0 0 0 64 64h352a64 64 0 0 0 64-64v-16a16 16 0 0 0 -16-16zM58.6 224h394.7c34.6 0 54.6-43.9 34.8-75.9C448 83.2 359.6 32.1 256 32c-103.5 .1-192 51.2-232.2 116.1C4 180.1 24.1 224 58.6 224zM384 112a16 16 0 1 1 -16 16 16 16 0 0 1 16-16zM256 80a16 16 0 1 1 -16 16 16 16 0 0 1 16-16zm-128 32a16 16 0 1 1 -16 16 16 16 0 0 1 16-16z"
     id="path1627"
     style="fill:#c2ccd5;filter:url(#filter358)" />
</svg>
